<?xml version="1.0" encoding="UTF-8" standalone="no"?>
<!-- Created with Inkscape (http://www.inkscape.org/) -->

<svg
   xmlns:dc="http://purl.org/dc/elements/1.1/"
   xmlns:cc="http://creativecommons.org/ns#"
   xmlns:rdf="http://www.w3.org/1999/02/22-rdf-syntax-ns#"
   xmlns:svg="http://www.w3.org/2000/svg"
   xmlns="http://www.w3.org/2000/svg"
   xmlns:sodipodi="http://sodipodi.sourceforge.net/DTD/sodipodi-0.dtd"
   xmlns:inkscape="http://www.inkscape.org/namespaces/inkscape"
   version="1.1"
   id="svg2"
   xml:space="preserve"
   width="3554.1733"
   height="1638.1866"
   viewBox="0 0 3554.1733 1638.1866"
   sodipodi:docname="Logo RDR-BPGO.svg"
   inkscape:version="0.92.1 r15371"><metadata
     id="metadata8"><rdf:RDF><cc:Work
         rdf:about=""><dc:format>image/svg+xml</dc:format><dc:type
           rdf:resource="http://purl.org/dc/dcmitype/StillImage" /><dc:title></dc:title></cc:Work></rdf:RDF></metadata><defs
     id="defs6"><clipPath
       clipPathUnits="userSpaceOnUse"
       id="clipPath22"><path
         d="M 1185.683,43.155 H 40.155 v 1145.528 h 1145.528 z"
         id="path20"
         inkscape:connector-curvature="0" /></clipPath><linearGradient
       x1="0"
       y1="0"
       x2="1"
       y2="0"
       gradientUnits="userSpaceOnUse"
       gradientTransform="matrix(1306.8831,915.08942,915.08942,-1306.8831,-40.522389,158.37495)"
       spreadMethod="pad"
       id="linearGradient36"><stop
         style="stop-opacity:1;stop-color:#006e78"
         offset="0"
         id="stop28" /><stop
         style="stop-opacity:1;stop-color:#006e78"
         offset="0.361809"
         id="stop30" /><stop
         style="stop-opacity:1;stop-color:#006669"
         offset="0.884422"
         id="stop32" /><stop
         style="stop-opacity:1;stop-color:#006669"
         offset="1"
         id="stop34" /></linearGradient><clipPath
       clipPathUnits="userSpaceOnUse"
       id="clipPath46"><path
         d="M 0,1228.641 H 2665.626 V 0 H 0 Z"
         id="path44"
         inkscape:connector-curvature="0" /></clipPath><clipPath
       clipPathUnits="userSpaceOnUse"
       id="clipPath86"><path
         d="m 192.919,495.028 c 0.028,0 0.028,-0.046 0.063,-0.046 v 0 c 19.3,-10.985 40.659,-17.958 62.116,-18.228 v 0 c -17.167,1.136 -58.984,19.899 -75.569,32.073 v 0 c 3.172,-5.086 7.594,-9.74 13.39,-13.799"
         id="path84"
         inkscape:connector-curvature="0" /></clipPath><linearGradient
       x1="0"
       y1="0"
       x2="1"
       y2="0"
       gradientUnits="userSpaceOnUse"
       gradientTransform="matrix(75.568199,0,0,-75.568199,179.5293,492.79016)"
       spreadMethod="pad"
       id="linearGradient102"><stop
         style="stop-opacity:1;stop-color:#632114"
         offset="0"
         id="stop92" /><stop
         style="stop-opacity:1;stop-color:#a93e1b"
         offset="0.565934"
         id="stop94" /><stop
         style="stop-opacity:1;stop-color:#e85227"
         offset="0.72457124"
         id="stop96" /><stop
         style="stop-opacity:1;stop-color:#e85227"
         offset="0.758242"
         id="stop98" /><stop
         style="stop-opacity:1;stop-color:#f7af3e"
         offset="1"
         id="stop100" /></linearGradient><clipPath
       clipPathUnits="userSpaceOnUse"
       id="clipPath112"><path
         d="m 336.132,1091.041 c -4.22,7.467 -10.113,13.309 -17.218,17.957 v 0 c -15.892,10.322 -37.977,14.658 -62.22,17.518 v 0 c 28.279,-4.544 70.57,-26.064 79.438,-35.475"
         id="path110"
         inkscape:connector-curvature="0" /></clipPath><linearGradient
       x1="0"
       y1="0"
       x2="1"
       y2="0"
       gradientUnits="userSpaceOnUse"
       gradientTransform="matrix(-76.656853,18.330971,18.330971,76.656853,334.40829,1100.8213)"
       spreadMethod="pad"
       id="linearGradient140"><stop
         style="stop-opacity:1;stop-color:#053e1a"
         offset="0"
         id="stop118" /><stop
         style="stop-opacity:1;stop-color:#3ca52b"
         offset="0.394495"
         id="stop120" /><stop
         style="stop-opacity:1;stop-color:#4ea928"
         offset="0.56855976"
         id="stop122" /><stop
         style="stop-opacity:1;stop-color:#4ea928"
         offset="0.605505"
         id="stop124" /><stop
         style="stop-opacity:1;stop-color:#52ab39"
         offset="0.730769"
         id="stop126" /><stop
         style="stop-opacity:1;stop-color:#3ba52f"
         offset="0.85228012"
         id="stop128" /><stop
         style="stop-opacity:1;stop-color:#3ba52f"
         offset="0.857143"
         id="stop130" /><stop
         style="stop-opacity:1;stop-color:#49a93f"
         offset="0.90489444"
         id="stop132" /><stop
         style="stop-opacity:1;stop-color:#49a93f"
         offset="0.917582"
         id="stop134" /><stop
         style="stop-opacity:1;stop-color:#088b46"
         offset="0.99682855"
         id="stop136" /><stop
         style="stop-opacity:1;stop-color:#088b46"
         offset="1"
         id="stop138" /></linearGradient><clipPath
       clipPathUnits="userSpaceOnUse"
       id="clipPath150"><path
         d="m 179.529,508.827 c 16.585,-12.174 58.402,-30.937 75.569,-32.073 v 0 c 0.57,-0.052 1.09,-0.052 1.596,-0.052 v 0 c -32.204,16.543 -63.614,36.132 -83.762,53.04 v 0 c 0.52,-7.508 2.63,-14.589 6.597,-20.915"
         id="path148"
         inkscape:connector-curvature="0" /></clipPath><linearGradient
       x1="0"
       y1="0"
       x2="1"
       y2="0"
       gradientUnits="userSpaceOnUse"
       gradientTransform="matrix(83.762314,0,0,-83.762314,172.93243,503.22153)"
       spreadMethod="pad"
       id="linearGradient170"><stop
         style="stop-opacity:1;stop-color:#0a1d31"
         offset="0"
         id="stop156" /><stop
         style="stop-opacity:1;stop-color:#1b2972"
         offset="0.32967"
         id="stop158" /><stop
         style="stop-opacity:1;stop-color:#1b2972"
         offset="0.49604016"
         id="stop160" /><stop
         style="stop-opacity:1;stop-color:#2767ac"
         offset="0.675824"
         id="stop162" /><stop
         style="stop-opacity:1;stop-color:#becee0"
         offset="0.835165"
         id="stop164" /><stop
         style="stop-opacity:1;stop-color:#becee0"
         offset="0.88133684"
         id="stop166" /><stop
         style="stop-opacity:1;stop-color:#1a1d42"
         offset="1"
         id="stop168" /></linearGradient><clipPath
       clipPathUnits="userSpaceOnUse"
       id="clipPath180"><path
         d="m 343.277,1065.739 c -0.063,2.485 -0.317,4.913 -0.773,7.346 v 0 c -1.251,6.873 -3.425,12.819 -6.372,17.956 v 0 c -8.868,9.411 -51.159,30.931 -79.438,35.475 v 0 c 31.388,-17.576 83.7,-53.864 86.583,-60.777"
         id="path178"
         inkscape:connector-curvature="0" /></clipPath><linearGradient
       x1="0"
       y1="0"
       x2="1"
       y2="0"
       gradientUnits="userSpaceOnUse"
       gradientTransform="matrix(-99.201584,40.503422,40.503422,99.201584,347.92419,1078.3756)"
       spreadMethod="pad"
       id="linearGradient200"><stop
         style="stop-opacity:1;stop-color:#0a1d31"
         offset="0"
         id="stop186" /><stop
         style="stop-opacity:1;stop-color:#4fa8d9"
         offset="0.32967"
         id="stop188" /><stop
         style="stop-opacity:1;stop-color:#4fa8d9"
         offset="0.49604016"
         id="stop190" /><stop
         style="stop-opacity:1;stop-color:#2ba2d7"
         offset="0.675824"
         id="stop192" /><stop
         style="stop-opacity:1;stop-color:#c2e2d8"
         offset="0.835165"
         id="stop194" /><stop
         style="stop-opacity:1;stop-color:#c2e2d8"
         offset="0.88133684"
         id="stop196" /><stop
         style="stop-opacity:1;stop-color:#4b5da3"
         offset="1"
         id="stop198" /></linearGradient><clipPath
       clipPathUnits="userSpaceOnUse"
       id="clipPath210"><path
         d="m 336.132,1091.041 c 2.947,-5.137 5.121,-11.083 6.372,-17.956 v 0 c 0.456,-2.433 0.71,-4.861 0.773,-7.346 v 0 -0.058 c 0.802,-24.553 -16.013,-50.507 -39.673,-82.147 v 0 C 274.79,945.082 130.636,809.607 102.946,735.682 v 0 C 70.152,647.97 103.898,599.78 129.649,556.301 v 0 c -25.522,46.021 -25.717,73.389 5.318,136.987 v 0 c 29.997,61.544 167.581,191.547 211.868,260.069 v 0 c 19.629,30.343 27.725,54.677 26.41,81.762 v 0 c -0.957,20.338 -10.887,36.836 -22.702,49.384 v 0 c -1.055,1.083 -2.013,2.053 -2.883,2.917 v 0 c -10.086,10.004 -21.042,17.195 -28.746,21.578 v 0 c 7.105,-4.648 12.998,-10.49 17.218,-17.957"
         id="path208"
         inkscape:connector-curvature="0" /></clipPath><linearGradient
       x1="0"
       y1="0"
       x2="1"
       y2="0"
       gradientUnits="userSpaceOnUse"
       gradientTransform="matrix(410.16586,287.20123,287.20123,-410.16586,32.628994,698.45264)"
       spreadMethod="pad"
       id="linearGradient236"><stop
         style="stop-opacity:1;stop-color:#981a1b"
         offset="0"
         id="stop216" /><stop
         style="stop-opacity:1;stop-color:#f7ac23"
         offset="0.18146"
         id="stop218" /><stop
         style="stop-opacity:1;stop-color:#f7ac23"
         offset="0.274725"
         id="stop220" /><stop
         style="stop-opacity:1;stop-color:#fbd624"
         offset="0.549451"
         id="stop222" /><stop
         style="stop-opacity:1;stop-color:#fbf6c1"
         offset="0.74114747"
         id="stop224" /><stop
         style="stop-opacity:1;stop-color:#fbf6c1"
         offset="0.835165"
         id="stop226" /><stop
         style="stop-opacity:1;stop-color:#fbd624"
         offset="0.92114082"
         id="stop228" /><stop
         style="stop-opacity:1;stop-color:#fbd624"
         offset="0.923077"
         id="stop230" /><stop
         style="stop-opacity:1;stop-color:#f5a323"
         offset="0.97468759"
         id="stop232" /><stop
         style="stop-opacity:1;stop-color:#f5a323"
         offset="1"
         id="stop234" /></linearGradient><clipPath
       clipPathUnits="userSpaceOnUse"
       id="clipPath246"><path
         d="m 402.319,978.614 c -2.405,-50.946 -35.151,-92.752 -46.938,-110.87 v 0 C 317.086,808.909 182.193,689.067 150.841,614.658 v 0 c -18.764,-44.564 -12.005,-74.411 17.42,-102.597 v 0 c 0.035,-0.051 0.093,-0.104 0.127,-0.162 v 0 c 7.658,-6.273 15.881,-11.946 24.531,-16.871 v 0 c -5.796,4.059 -10.218,8.713 -13.39,13.799 v 0 c -3.967,6.326 -6.077,13.407 -6.597,20.915 v 0 c -1.147,16.127 4.741,34.344 14.381,52.248 v 0 c 30.285,56.24 145.625,147.637 194.478,228.977 v 0 c 20.303,33.798 40.538,61.056 43.225,116.275 v 0 c 2.791,57.426 -38.162,113.609 -45.722,122.864 v 0 c 13.061,-19.415 24.341,-44.182 23.025,-71.492"
         id="path244"
         inkscape:connector-curvature="0" /></clipPath><linearGradient
       x1="0"
       y1="0"
       x2="1"
       y2="0"
       gradientUnits="userSpaceOnUse"
       gradientTransform="matrix(366.54462,393.07095,393.07095,-366.54462,101.33694,574.42603)"
       spreadMethod="pad"
       id="linearGradient266"><stop
         style="stop-opacity:1;stop-color:#0a1d31"
         offset="0"
         id="stop252" /><stop
         style="stop-opacity:1;stop-color:#4fa8d9"
         offset="0.32967"
         id="stop254" /><stop
         style="stop-opacity:1;stop-color:#4fa8d9"
         offset="0.49604016"
         id="stop256" /><stop
         style="stop-opacity:1;stop-color:#2ba2d7"
         offset="0.675824"
         id="stop258" /><stop
         style="stop-opacity:1;stop-color:#c2e2d8"
         offset="0.835165"
         id="stop260" /><stop
         style="stop-opacity:1;stop-color:#c2e2d8"
         offset="0.88133684"
         id="stop262" /><stop
         style="stop-opacity:1;stop-color:#4b5da3"
         offset="1"
         id="stop264" /></linearGradient><clipPath
       clipPathUnits="userSpaceOnUse"
       id="clipPath276"><path
         d="m 373.245,1035.119 c 1.315,-27.085 -6.781,-51.419 -26.41,-81.762 v 0 C 302.548,884.835 164.964,754.832 134.967,693.288 v 0 c -31.035,-63.598 -30.84,-90.966 -5.318,-136.987 v 0 c 9.319,-15.737 22.698,-31.208 38.612,-44.24 v 0 c -29.425,28.186 -36.184,58.033 -17.42,102.597 v 0 c 31.352,74.409 166.245,194.251 204.54,253.086 v 0 c 11.787,18.118 44.533,59.924 46.938,110.87 v 0 c 1.316,27.31 -9.964,52.077 -23.025,71.492 v 0 c -10.212,15.194 -21.549,27.143 -28.751,34.397 v 0 c 11.815,-12.548 21.745,-29.046 22.702,-49.384"
         id="path274"
         inkscape:connector-curvature="0" /></clipPath><linearGradient
       x1="0"
       y1="0"
       x2="1"
       y2="0"
       gradientUnits="userSpaceOnUse"
       gradientTransform="matrix(395.93787,309.34055,309.34055,-395.93787,60.472145,642.86078)"
       spreadMethod="pad"
       id="linearGradient304"><stop
         style="stop-opacity:1;stop-color:#053e1a"
         offset="0"
         id="stop282" /><stop
         style="stop-opacity:1;stop-color:#3ca52b"
         offset="0.394495"
         id="stop284" /><stop
         style="stop-opacity:1;stop-color:#4ea928"
         offset="0.56855976"
         id="stop286" /><stop
         style="stop-opacity:1;stop-color:#4ea928"
         offset="0.605505"
         id="stop288" /><stop
         style="stop-opacity:1;stop-color:#52ab39"
         offset="0.730769"
         id="stop290" /><stop
         style="stop-opacity:1;stop-color:#3ba52f"
         offset="0.85228012"
         id="stop292" /><stop
         style="stop-opacity:1;stop-color:#3ba52f"
         offset="0.857143"
         id="stop294" /><stop
         style="stop-opacity:1;stop-color:#49a93f"
         offset="0.90489444"
         id="stop296" /><stop
         style="stop-opacity:1;stop-color:#49a93f"
         offset="0.917582"
         id="stop298" /><stop
         style="stop-opacity:1;stop-color:#088b46"
         offset="0.99682855"
         id="stop300" /><stop
         style="stop-opacity:1;stop-color:#088b46"
         offset="1"
         id="stop302" /></linearGradient><clipPath
       clipPathUnits="userSpaceOnUse"
       id="clipPath314"><path
         d="M 0,1228.641 H 2665.626 V 0 H 0 Z"
         id="path312"
         inkscape:connector-curvature="0" /></clipPath><clipPath
       clipPathUnits="userSpaceOnUse"
       id="clipPath530"><path
         d="M 1808.321,1026.668 1697.789,916.133 c -2.06,-2.059 -3.218,-4.852 -3.218,-7.765 v 0 -63.206 h 65.257 v 63.468 c 0,1.766 1.432,3.199 3.198,3.199 v 0 h 35.578 c 1.768,0 3.2,-1.433 3.2,-3.199 v 0 -63.468 h 63.208 c 1.766,0 3.199,-1.432 3.199,-3.198 v 0 -35.579 c 0,-1.767 -1.433,-3.199 -3.199,-3.199 v 0 h -63.208 v -63.467 c 0,-1.767 -1.432,-3.199 -3.2,-3.199 v 0 h -35.578 c -1.766,0 -3.198,1.432 -3.198,3.199 v 0 63.467 h -65.257 V 649.274 c 0,-6.064 4.917,-10.98 10.982,-10.98 v 0 h 259.102 c 2.912,0 5.705,1.157 7.764,3.216 v 0 l 110.535,110.534 v 267.288 c 0,4.052 -3.285,7.336 -7.336,7.336 v 0 z m 173.364,-115.953 c 0.516,0.702 1.337,1.117 2.209,1.117 v 0 h 44.766 c 1.41,0 2.221,-1.601 1.385,-2.736 v 0 l -60.814,-82.677 c -0.712,-0.97 -0.71,-2.291 0.01,-3.257 v 0 l 60.922,-82.269 c 1.34,-1.809 0.048,-4.373 -2.204,-4.373 v 0 h -42.653 c -0.869,0 -1.687,0.413 -2.204,1.11 v 0 l -39.868,53.839 -39.806,-53.753 c -0.558,-0.752 -1.438,-1.196 -2.375,-1.196 v 0 h -42.122 c -2.428,0 -3.819,2.763 -2.375,4.713 v 0 l 60.577,81.803 c 0.771,1.041 0.773,2.465 0.01,3.509 v 0 l -60.72,82.551 c -0.835,1.135 -0.024,2.736 1.383,2.736 v 0 h 44.66 c 0.939,0 1.822,-0.447 2.38,-1.204 v 0 l 38.393,-52.196 38.455,52.283 z"
         id="path528"
         inkscape:connector-curvature="0" /></clipPath><linearGradient
       x1="0"
       y1="0"
       x2="1"
       y2="0"
       gradientUnits="userSpaceOnUse"
       gradientTransform="matrix(-384.67581,-384.75101,-384.75101,384.67581,2084.1853,1027.941)"
       spreadMethod="pad"
       id="linearGradient546"><stop
         style="stop-opacity:1;stop-color:#44b8e5"
         offset="0"
         id="stop536" /><stop
         style="stop-opacity:1;stop-color:#44b8e5"
         offset="0.05"
         id="stop538" /><stop
         style="stop-opacity:1;stop-color:#033364"
         offset="0.56587419"
         id="stop540" /><stop
         style="stop-opacity:1;stop-color:#033364"
         offset="0.75"
         id="stop542" /><stop
         style="stop-opacity:1;stop-color:#033364"
         offset="1"
         id="stop544" /></linearGradient><clipPath
       clipPathUnits="userSpaceOnUse"
       id="clipPath556"><path
         d="M 0,1228.641 H 2665.626 V 0 H 0 Z"
         id="path554"
         inkscape:connector-curvature="0" /></clipPath><clipPath
       clipPathUnits="userSpaceOnUse"
       id="clipPath668"><path
         d="M 0,1228.641 H 2665.626 V 0 H 0 Z"
         id="path666"
         inkscape:connector-curvature="0" /></clipPath></defs><sodipodi:namedview
     pagecolor="#ffffff"
     bordercolor="#666666"
     borderopacity="1"
     objecttolerance="10"
     gridtolerance="10"
     guidetolerance="10"
     inkscape:pageopacity="0"
     inkscape:pageshadow="2"
     inkscape:window-width="838"
     inkscape:window-height="480"
     id="namedview4"
     showgrid="false"
     inkscape:zoom="0.10579113"
     inkscape:cx="1795.9918"
     inkscape:cy="762.37779"
     inkscape:window-x="0"
     inkscape:window-y="0"
     inkscape:window-maximized="0"
     inkscape:current-layer="g10" /><g
     id="g10"
     inkscape:groupmode="layer"
     inkscape:label="Logo RDR-BPGO"
     transform="matrix(1.3333333,0,0,-1.3333333,0,1638.1867)"><path
       d="M 2614.544,42.665 H 1185.683 v 1146.019 h 1428.861 z"
       style="fill:#ffffff;fill-opacity:1;fill-rule:nonzero;stroke:none"
       id="path12"
       inkscape:connector-curvature="0" /><path
       d="M 2614.544,42.665 H 41.178 v 1145.874 h 2573.366 z"
       style="fill:none;stroke:#006f7a;stroke-width:3;stroke-linecap:butt;stroke-linejoin:miter;stroke-miterlimit:10;stroke-dasharray:none;stroke-opacity:1"
       id="path14"
       inkscape:connector-curvature="0" /><g
       id="g16"><g
         id="g18"
         clip-path="url(#clipPath22)"><g
           id="g24"><g
             id="g26"><path
               d="M 1185.683,43.155 H 40.155 v 1145.528 h 1145.528 z"
               style="fill:url(#linearGradient36);stroke:none"
               id="path38"
               inkscape:connector-curvature="0" /></g></g></g></g><g
       id="g40"><g
         id="g42"
         clip-path="url(#clipPath46)"><g
           id="g48"
           transform="translate(435.1763,838.9001)"><path
             d="m 0,0 c -9.411,13.528 -19.768,24.092 -26.341,30.499 -0.969,0.957 -1.846,1.811 -2.641,2.584 -9.192,8.839 -19.115,15.119 -26.087,18.93 -14.393,9.019 -34.218,12.519 -55.946,14.658 28.382,-15.281 75.823,-47.042 78.527,-53.235 v -0.058 c 1.176,-22.131 -13.366,-45.854 -33.918,-74.836 -25.037,-35.221 -151.356,-160.103 -174.733,-227.305 -27.661,-79.737 3.402,-122.588 27.218,-161.332 8.626,-14.019 20.879,-27.725 35.347,-39.2 0.035,-0.04 0.081,-0.093 0.116,-0.145 6.954,-5.512 14.416,-10.482 22.241,-14.767 0.029,0 0.029,-0.041 0.063,-0.035 17.455,-9.56 24.865,-15.454 44.05,-15.303 0.513,-0.03 0.962,-0.024 1.424,-0.012 -29.097,14.335 -57.537,31.409 -75.863,46.298 -1.326,14.525 15.408,31.075 23.689,47.412 26.029,51.292 127.402,135.879 169.56,210.155 17.519,30.868 35.089,55.837 36.461,105.698 C 44.586,-58.131 6.931,-8.211 0,0"
             style="fill:#ffffff;fill-opacity:1;fill-rule:nonzero;stroke:none"
             id="path50"
             inkscape:connector-curvature="0" /></g><g
           id="g52"
           transform="translate(238.6343,625.0646)"><path
             d="m 0,0 c -8.926,-11.953 -17.167,-23.682 -24.265,-34.868 h 204.949 c 8.454,11.601 16.048,23.105 22.316,34.361 0.093,0.167 0.185,0.34 0.289,0.507 z"
             style="fill:#000000;fill-opacity:1;fill-rule:nonzero;stroke:none"
             id="path54"
             inkscape:connector-curvature="0" /></g><g
           id="g56"
           transform="translate(401.6738,856.6555)"><path
             d="m 0,0 v -0.052 c 1.239,-22.443 -13.298,-46.639 -33.866,-76.197 -1.551,-2.226 -3.495,-4.81 -5.784,-7.704 H 70.338 C 59.624,-48.236 37.787,-19.438 32.661,-13.361 23.169,0.282 12.749,10.916 6.124,17.351 5.155,18.319 4.272,19.185 3.471,19.952 -5.79,28.837 -15.771,35.134 -22.783,38.94 -37.263,47.97 -57.18,51.361 -78.988,53.344 -50.457,38.081 -2.733,6.245 0,0"
             style="fill:#000000;fill-opacity:1;fill-rule:nonzero;stroke:none"
             id="path58"
             inkscape:connector-curvature="0" /></g><g
           id="g60"
           transform="translate(346.0278,503.256)"><path
             d="m 0,0 h -163.131 c -1.148,-12.138 -0.819,-23.262 0.622,-33.572 H -29.945 C -20.563,-22.795 -10.42,-11.55 0,0"
             style="fill:#000000;fill-opacity:1;fill-rule:nonzero;stroke:none"
             id="path62"
             inkscape:connector-curvature="0" /></g><g
           id="g64"
           transform="translate(310.7837,712.8757)"><path
             d="m 0,0 h 165.818 c 0.727,5.998 1.2,12.357 1.372,19.196 0.11,4.533 -0.092,9.042 -0.519,13.511 H 28.463 C 19.946,22.864 10.252,11.815 0,0"
             style="fill:#000000;fill-opacity:1;fill-rule:nonzero;stroke:none"
             id="path66"
             inkscape:connector-curvature="0" /></g><g
           id="g68"
           transform="translate(199.06,563.0764)"><path
             d="m 0,0 c -2.462,-5.126 -4.539,-10.05 -6.119,-14.692 -2.11,-6.229 -3.845,-12.208 -5.298,-18.003 H 171.245 C 180.782,-21.9 190.215,-10.956 199.2,0 Z"
             style="fill:#000000;fill-opacity:1;fill-rule:nonzero;stroke:none"
             id="path70"
             inkscape:connector-curvature="0" /></g><g
           id="g72"
           transform="translate(271.918,409.9846)"><path
             d="M 0,0 C 4.855,9.757 12.352,20.713 21.601,32.58 H -81.761 c 7.744,-21.987 19.859,-40.203 30.544,-57.595 8.696,-14.156 21.036,-27.961 35.591,-39.464 0.034,-0.053 0.092,-0.105 0.121,-0.151 7.005,-5.536 14.507,-10.506 22.367,-14.791 0.034,0 0.034,-0.04 0.058,-0.04 17.564,-9.549 36.882,-15.373 56.141,-15.056 0.519,-0.029 0.981,-0.017 1.442,0 C 35.245,-80.228 6.631,-63.131 -11.798,-48.178 -13.176,-33.462 -8.274,-16.636 0,0"
             style="fill:#000000;fill-opacity:1;fill-rule:nonzero;stroke:none"
             id="path74"
             inkscape:connector-curvature="0" /></g><g
           id="g76"
           transform="translate(287.4756,685.7565)"><path
             d="m 0,0 c -9.295,-10.956 -18.683,-22.247 -27.771,-33.572 h 197.303 c 5.455,10.397 10.333,21.197 14.024,33.572 z"
             style="fill:#000000;fill-opacity:1;fill-rule:nonzero;stroke:none"
             id="path78"
             inkscape:connector-curvature="0" /></g></g></g><g
       id="g80"><g
         id="g82"
         clip-path="url(#clipPath86)"><g
           id="g88"><g
             id="g90"><path
               d="m 192.919,495.028 c 0.028,0 0.028,-0.046 0.063,-0.046 v 0 c 19.3,-10.985 40.659,-17.958 62.116,-18.228 v 0 c -17.167,1.136 -58.984,19.899 -75.569,32.073 v 0 c 3.172,-5.086 7.594,-9.74 13.39,-13.799"
               style="fill:url(#linearGradient102);stroke:none"
               id="path104"
               inkscape:connector-curvature="0" /></g></g></g></g><g
       id="g106"><g
         id="g108"
         clip-path="url(#clipPath112)"><g
           id="g114"><g
             id="g116"><path
               d="m 336.132,1091.041 c -4.22,7.467 -10.113,13.309 -17.218,17.957 v 0 c -15.892,10.322 -37.977,14.658 -62.22,17.518 v 0 c 28.279,-4.544 70.57,-26.064 79.438,-35.475"
               style="fill:url(#linearGradient140);stroke:none"
               id="path142"
               inkscape:connector-curvature="0" /></g></g></g></g><g
       id="g144"><g
         id="g146"
         clip-path="url(#clipPath150)"><g
           id="g152"><g
             id="g154"><path
               d="m 179.529,508.827 c 16.585,-12.174 58.402,-30.937 75.569,-32.073 v 0 c 0.57,-0.052 1.09,-0.052 1.596,-0.052 v 0 c -32.204,16.543 -63.614,36.132 -83.762,53.04 v 0 c 0.52,-7.508 2.63,-14.589 6.597,-20.915"
               style="fill:url(#linearGradient170);stroke:none"
               id="path172"
               inkscape:connector-curvature="0" /></g></g></g></g><g
       id="g174"><g
         id="g176"
         clip-path="url(#clipPath180)"><g
           id="g182"><g
             id="g184"><path
               d="m 343.277,1065.739 c -0.063,2.485 -0.317,4.913 -0.773,7.346 v 0 c -1.251,6.873 -3.425,12.819 -6.372,17.956 v 0 c -8.868,9.411 -51.159,30.931 -79.438,35.475 v 0 c 31.388,-17.576 83.7,-53.864 86.583,-60.777"
               style="fill:url(#linearGradient200);stroke:none"
               id="path202"
               inkscape:connector-curvature="0" /></g></g></g></g><g
       id="g204"><g
         id="g206"
         clip-path="url(#clipPath210)"><g
           id="g212"><g
             id="g214"><path
               d="m 336.132,1091.041 c 2.947,-5.137 5.121,-11.083 6.372,-17.956 v 0 c 0.456,-2.433 0.71,-4.861 0.773,-7.346 v 0 -0.058 c 0.802,-24.553 -16.013,-50.507 -39.673,-82.147 v 0 C 274.79,945.082 130.636,809.607 102.946,735.682 v 0 C 70.152,647.97 103.898,599.78 129.649,556.301 v 0 c -25.522,46.021 -25.717,73.389 5.318,136.987 v 0 c 29.997,61.544 167.581,191.547 211.868,260.069 v 0 c 19.629,30.343 27.725,54.677 26.41,81.762 v 0 c -0.957,20.338 -10.887,36.836 -22.702,49.384 v 0 c -1.055,1.083 -2.013,2.053 -2.883,2.917 v 0 c -10.086,10.004 -21.042,17.195 -28.746,21.578 v 0 c 7.105,-4.648 12.998,-10.49 17.218,-17.957"
               style="fill:url(#linearGradient236);stroke:none"
               id="path238"
               inkscape:connector-curvature="0" /></g></g></g></g><g
       id="g240"><g
         id="g242"
         clip-path="url(#clipPath246)"><g
           id="g248"><g
             id="g250"><path
               d="m 402.319,978.614 c -2.405,-50.946 -35.151,-92.752 -46.938,-110.87 v 0 C 317.086,808.909 182.193,689.067 150.841,614.658 v 0 c -18.764,-44.564 -12.005,-74.411 17.42,-102.597 v 0 c 0.035,-0.051 0.093,-0.104 0.127,-0.162 v 0 c 7.658,-6.273 15.881,-11.946 24.531,-16.871 v 0 c -5.796,4.059 -10.218,8.713 -13.39,13.799 v 0 c -3.967,6.326 -6.077,13.407 -6.597,20.915 v 0 c -1.147,16.127 4.741,34.344 14.381,52.248 v 0 c 30.285,56.24 145.625,147.637 194.478,228.977 v 0 c 20.303,33.798 40.538,61.056 43.225,116.275 v 0 c 2.791,57.426 -38.162,113.609 -45.722,122.864 v 0 c 13.061,-19.415 24.341,-44.182 23.025,-71.492"
               style="fill:url(#linearGradient266);stroke:none"
               id="path268"
               inkscape:connector-curvature="0" /></g></g></g></g><g
       id="g270"><g
         id="g272"
         clip-path="url(#clipPath276)"><g
           id="g278"><g
             id="g280"><path
               d="m 373.245,1035.119 c 1.315,-27.085 -6.781,-51.419 -26.41,-81.762 v 0 C 302.548,884.835 164.964,754.832 134.967,693.288 v 0 c -31.035,-63.598 -30.84,-90.966 -5.318,-136.987 v 0 c 9.319,-15.737 22.698,-31.208 38.612,-44.24 v 0 c -29.425,28.186 -36.184,58.033 -17.42,102.597 v 0 c 31.352,74.409 166.245,194.251 204.54,253.086 v 0 c 11.787,18.118 44.533,59.924 46.938,110.87 v 0 c 1.316,27.31 -9.964,52.077 -23.025,71.492 v 0 c -10.212,15.194 -21.549,27.143 -28.751,34.397 v 0 c 11.815,-12.548 21.745,-29.046 22.702,-49.384"
               style="fill:url(#linearGradient304);stroke:none"
               id="path306"
               inkscape:connector-curvature="0" /></g></g></g></g><g
       id="g308"><g
         id="g310"
         clip-path="url(#clipPath314)"><g
           id="g316"
           transform="translate(346.5586,503.798)"><path
             d="m 0,0 h -163.131 c -1.142,-12.144 -0.814,-23.273 0.622,-33.584 H -29.945 C -20.558,-22.807 -10.415,-11.562 0,0"
             style="fill:#000000;fill-opacity:1;fill-rule:nonzero;stroke:none"
             id="path318"
             inkscape:connector-curvature="0" /></g><g
           id="g320"
           transform="translate(668.4844,633.6398)"><path
             d="m 0,0 c 9.261,0 14.335,4.625 14.335,13.436 0,8.661 -4.774,13.885 -14.485,13.885 H -16.273 V 0 Z m -5.075,-20.01 h -5.223 -5.975 V -54.492 H -41.351 V 50.015 h 39.714 c 26.271,0 41.656,-13.736 41.656,-35.383 0,-14.332 -7.024,-24.931 -19.709,-29.711 L 44.194,-54.492 H 14.485 Z"
             style="fill:#ffffff;fill-opacity:1;fill-rule:nonzero;stroke:none"
             id="path322"
             inkscape:connector-curvature="0" /></g><g
           id="g324"
           transform="translate(771.8301,600.7941)"><path
             d="M 0,0 C 17.31,0 29.858,11.948 29.858,30.608 29.858,49.418 17.31,61.36 0,61.36 -17.322,61.36 -29.87,49.418 -29.87,30.608 -29.87,11.948 -17.322,0 0,0 m 0,84.951 c 31.945,0 55.08,-22.394 55.08,-54.343 0,-31.951 -23.135,-54.341 -55.08,-54.341 -31.958,0 -55.092,22.39 -55.092,54.341 0,31.949 23.134,54.343 55.092,54.343"
             style="fill:#ffffff;fill-opacity:1;fill-rule:nonzero;stroke:none"
             id="path326"
             inkscape:connector-curvature="0" /></g><g
           id="g328"
           transform="translate(929.8062,625.7287)"><path
             d="m 0,0 c 0,-31.502 -18.21,-48.668 -45.532,-48.668 -27.471,0 -45.531,17.166 -45.531,48.668 v 57.926 h 25.372 V 0.749 c 0,-17.921 6.873,-25.684 20.459,-25.684 13.436,0 20.448,7.763 20.448,25.684 V 57.926 H 0 Z"
             style="fill:#ffffff;fill-opacity:1;fill-rule:nonzero;stroke:none"
             id="path330"
             inkscape:connector-curvature="0" /></g><g
           id="g332"
           transform="translate(997.7568,660.3644)"><path
             d="M 0,0 V -81.217 H -25.084 V 0 h -31.945 v 23.29 h 88.975 l 0,-23.29 z"
             style="fill:#ffffff;fill-opacity:1;fill-rule:nonzero;stroke:none"
             id="path334"
             inkscape:connector-curvature="0" /></g><g
           id="g336"
           transform="translate(1041.5239,683.6545)"><path
             d="M 0,0 H 76.139 V -23.29 H 25.083 V -41.203 H 62.704 V -62.107 H 25.083 v -19.11 h 51.806 v -23.29 H 0 Z"
             style="fill:#ffffff;fill-opacity:1;fill-rule:nonzero;stroke:none"
             id="path338"
             inkscape:connector-curvature="0" /></g><g
           id="g340"
           transform="translate(495.1123,466.6281)"><path
             d="M 0,0 C 15.529,0 31.208,7.911 31.208,28.515 31.208,48.968 15.529,57.929 0,57.929 H -18.061 V 0 Z m 1.349,81.214 c 31.196,0 55.087,-21.197 55.087,-52.699 0,-31.652 -24.04,-51.806 -54.943,-51.806 H -43.145 V 81.214 Z"
             style="fill:#ffffff;fill-opacity:1;fill-rule:nonzero;stroke:none"
             id="path342"
             inkscape:connector-curvature="0" /></g><g
           id="g344"
           transform="translate(654.4375,489.9191)"><path
             d="m 0,0 c 0,-31.503 -18.21,-48.669 -45.537,-48.669 -27.465,0 -45.537,17.166 -45.537,48.669 v 57.923 h 25.383 V 0.743 c 0,-17.916 6.868,-25.678 20.454,-25.678 13.436,0 20.453,7.762 20.453,25.678 v 57.18 H 0 Z"
             style="fill:#ffffff;fill-opacity:1;fill-rule:nonzero;stroke:none"
             id="path346"
             inkscape:connector-curvature="0" /></g><g
           id="g348"
           transform="translate(746.5845,497.8303)"><path
             d="m 0,0 c 9.261,0 14.335,4.63 14.335,13.436 0,8.661 -4.774,13.885 -14.485,13.885 H -16.273 V 0 Z m -5.074,-20.004 h -5.225 -5.974 V -54.493 H -41.356 V 50.012 h 39.718 c 26.272,0 41.645,-13.736 41.645,-35.383 0,-14.329 -7.011,-24.928 -19.698,-29.708 L 44.193,-54.493 H 14.485 Z"
             style="fill:#ffffff;fill-opacity:1;fill-rule:nonzero;stroke:none"
             id="path350"
             inkscape:connector-curvature="0" /></g><g
           id="g352"
           transform="translate(865.6025,484.3937)"><path
             d="M 0,0 H -40.157 V -41.057 H -65.241 V 63.448 h 25.084 V 24.034 H 0 V 63.448 H 25.084 V -41.057 H 0 Z"
             style="fill:#ffffff;fill-opacity:1;fill-rule:nonzero;stroke:none"
             id="path354"
             inkscape:connector-curvature="0" /></g><g
           id="g356"
           transform="translate(996.4077,489.9191)"><path
             d="m 0,0 c 0,-31.503 -18.21,-48.669 -45.532,-48.669 -27.47,0 -45.531,17.166 -45.531,48.669 v 57.923 h 25.372 V 0.743 c 0,-17.916 6.874,-25.678 20.459,-25.678 13.436,0 20.448,7.762 20.448,25.678 v 57.18 H 0 Z"
             style="fill:#ffffff;fill-opacity:1;fill-rule:nonzero;stroke:none"
             id="path358"
             inkscape:connector-curvature="0" /></g><g
           id="g360"
           transform="translate(1091.2305,468.8654)"><path
             d="M 0,0 C 0,24.784 0.299,37.025 0.299,37.176 H 0 C -0.15,37.025 -5.225,27.621 -10.299,18.666 L -20.448,0.3 h -14.035 l -10.149,18.066 c -5.224,9.255 -10.16,18.659 -10.31,18.81 h -0.439 c 0,-0.151 0.3,-12.392 0.3,-37.176 V -25.528 H -80.165 V 78.977 h 26.572 l 26.271,-46.726 h 0.45 L -0.45,78.977 H 25.083 V -25.528 l -25.083,0 z"
             style="fill:#ffffff;fill-opacity:1;fill-rule:nonzero;stroke:none"
             id="path362"
             inkscape:connector-curvature="0" /></g><g
           id="g364"
           transform="translate(394.3213,321.7248)"><path
             d="M 0,0 C 12.023,0 24.161,6.129 24.161,22.079 24.161,37.92 12.023,44.856 0,44.856 H -13.983 V 0 Z m 1.044,62.888 c 24.161,0 42.654,-16.417 42.654,-40.809 0,-24.508 -18.608,-40.111 -42.539,-40.111 h -34.564 v 80.92 z"
             style="fill:#fbdd00;fill-opacity:1;fill-rule:nonzero;stroke:none"
             id="path366"
             inkscape:connector-curvature="0" /></g><g
           id="g368"
           transform="translate(446.1328,384.6125)"><path
             d="M 0,0 H 58.955 V -18.031 H 19.421 V -31.905 H 48.553 V -48.092 H 19.421 V -62.888 H 59.538 V -80.92 H 0 Z"
             style="fill:#fbdd00;fill-opacity:1;fill-rule:nonzero;stroke:none"
             id="path370"
             inkscape:connector-curvature="0" /></g><g
           id="g372"
           transform="translate(530.541,328.8918)"><path
             d="m 0,0 c 1.62,-6.124 7.283,-9.711 16.071,-9.711 7.398,0 11.908,2.544 11.908,7.744 0,7.75 -9.711,7.283 -19.653,9.711 -10.984,2.659 -24.622,7.744 -24.622,24.854 0,16.532 12.479,24.737 30.631,24.737 16.532,0 28.325,-6.7 32.834,-21.15 L 28.67,31.214 c -1.966,5.892 -6.591,9.134 -14.681,9.134 -7.398,0 -10.518,-2.895 -10.518,-7.168 0,-6.822 7.744,-7.866 19.075,-10.172 11.902,-2.313 25.084,-7.399 25.084,-24.859 0,-16.642 -11.677,-24.968 -31.444,-24.968 -14.104,0 -30.06,4.279 -34.679,21.848 z"
             style="fill:#fbdd00;fill-opacity:1;fill-rule:nonzero;stroke:none"
             id="path374"
             inkscape:connector-curvature="0" /></g><g
           id="g376"
           transform="translate(627.0928,366.5812)"><path
             d="M 0,0 V -62.889 H -19.42 V 0 H -44.159 V 18.031 H 24.732 V 0 Z"
             style="fill:#fbdd00;fill-opacity:1;fill-rule:nonzero;stroke:none"
             id="path378"
             inkscape:connector-curvature="0" /></g><path
           d="m 660.291,384.612 h 19.416 v -80.92 h -19.416 z"
           style="fill:#fbdd00;fill-opacity:1;fill-rule:nonzero;stroke:none"
           id="path380"
           inkscape:connector-curvature="0" /><g
           id="g382"
           transform="translate(710.585,352.0158)"><path
             d="m 0,0 h -0.352 c 0,-0.116 0.231,-10.058 0.231,-20.581 v -27.742 h -19.416 v 80.92 H 0.115 l 34.448,-47.394 h 0.347 c 0,0.115 -0.116,10.518 -0.116,19.3 v 28.094 h 19.421 v -80.92 H 34.448 Z"
             style="fill:#fbdd00;fill-opacity:1;fill-rule:nonzero;stroke:none"
             id="path384"
             inkscape:connector-curvature="0" /></g><g
           id="g386"
           transform="translate(818.001,350.8566)"><path
             d="M 0,0 C -2.543,6.706 -4.394,11.791 -4.509,11.907 H -4.855 C -4.97,11.791 -6.822,6.821 -9.364,0.115 l -5.784,-16.18 H 5.778 Z m -21.502,-33.757 -4.856,-13.407 h -20.459 l 31.207,80.92 H 6.47 l 31.329,-80.92 H 16.988 l -4.849,13.407 z"
             style="fill:#fbdd00;fill-opacity:1;fill-rule:nonzero;stroke:none"
             id="path388"
             inkscape:connector-curvature="0" /></g><g
           id="g390"
           transform="translate(890.7329,366.5812)"><path
             d="M 0,0 V -62.889 H -19.421 V 0 H -44.159 V 18.031 H 24.737 L 24.737,0 Z"
             style="fill:#fbdd00;fill-opacity:1;fill-rule:nonzero;stroke:none"
             id="path392"
             inkscape:connector-curvature="0" /></g><path
           d="m 923.936,384.612 h 19.421 v -80.92 h -19.421 z"
           style="fill:#fbdd00;fill-opacity:1;fill-rule:nonzero;stroke:none"
           id="path394"
           inkscape:connector-curvature="0" /><g
           id="g396"
           transform="translate(994.1128,320.4553)"><path
             d="M 0,0 C 13.407,0 23.117,9.249 23.117,23.694 23.117,38.26 13.407,47.51 0,47.51 -13.413,47.51 -23.124,38.26 -23.124,23.694 -23.124,9.249 -13.413,0 0,0 m 0,65.771 c 24.737,0 42.654,-17.338 42.654,-42.077 0,-24.737 -17.917,-42.077 -42.654,-42.077 -24.738,0 -42.66,17.34 -42.66,42.077 0,24.739 17.922,42.077 42.66,42.077"
             style="fill:#fbdd00;fill-opacity:1;fill-rule:nonzero;stroke:none"
             id="path398"
             inkscape:connector-curvature="0" /></g><g
           id="g400"
           transform="translate(1064.4219,352.0158)"><path
             d="m 0,0 h -0.352 c 0,-0.116 0.231,-10.058 0.231,-20.581 v -27.742 h -19.416 v 80.92 H 0.115 l 34.449,-47.394 h 0.346 c 0,0.115 -0.116,10.518 -0.116,19.3 v 28.094 h 19.422 v -80.92 H 34.449 Z"
             style="fill:#fbdd00;fill-opacity:1;fill-rule:nonzero;stroke:none"
             id="path402"
             inkscape:connector-curvature="0" /></g><g
           id="g404"
           transform="translate(416.6318,185.5969)"><path
             d="M 0,0 C 0,4.625 0.115,5.086 0.115,5.663 H -0.116 C -4.74,1.735 -13.522,-1.62 -22.887,-1.62 c -22.541,0 -41.616,16.993 -41.616,42.193 0,24.738 17.807,41.961 41.968,41.961 18.377,0 32.476,-10.171 37.677,-23.347 L -4.042,53.985 c -3.12,5.202 -9.135,10.287 -19.422,10.287 -13.061,0 -21.503,-9.71 -21.503,-23.815 0,-14.329 9.365,-23.694 23.7,-23.694 11.095,0 18.032,4.855 20.575,8.321 v 3.817 H -21.036 V 46.933 H 17.345 V 0 Z"
             style="fill:#fbdd00;fill-opacity:1;fill-rule:nonzero;stroke:none"
             id="path406"
             inkscape:connector-curvature="0" /></g><g
           id="g408"
           transform="translate(513.7607,221.6662)"><path
             d="m 0,0 c 0,-24.393 -14.105,-37.689 -35.256,-37.689 -21.266,0 -35.255,13.296 -35.255,37.689 V 44.851 H -50.86 V 0.576 c 0,-13.874 5.317,-19.883 15.835,-19.883 10.402,0 15.835,6.009 15.835,19.883 V 44.851 H 0 Z"
             style="fill:#fbdd00;fill-opacity:1;fill-rule:nonzero;stroke:none"
             id="path410"
             inkscape:connector-curvature="0" /></g><g
           id="g412"
           transform="translate(560.8374,232.7609)"><path
             d="M 0,0 C -2.549,6.706 -4.394,11.791 -4.509,11.907 H -4.855 C -4.971,11.791 -6.821,6.821 -9.365,0.115 l -5.778,-16.18 H 5.778 Z m -21.503,-33.757 -4.855,-13.407 h -20.465 l 31.219,80.92 H 6.47 l 31.329,-80.92 H 16.988 l -4.856,13.407 z"
             style="fill:#fbdd00;fill-opacity:1;fill-rule:nonzero;stroke:none"
             id="path414"
             inkscape:connector-curvature="0" /></g><g
           id="g416"
           transform="translate(638.4302,203.6291)"><path
             d="M 0,0 C 12.023,0 24.155,6.129 24.155,22.079 24.155,37.92 12.023,44.856 0,44.856 H -13.99 V 0 Z m 1.038,62.888 c 24.161,0 42.654,-16.417 42.654,-40.809 0,-24.508 -18.609,-40.111 -42.539,-40.111 h -34.564 v 80.92 z"
             style="fill:#fbdd00;fill-opacity:1;fill-rule:nonzero;stroke:none"
             id="path418"
             inkscape:connector-curvature="0" /></g><g
           id="g420"
           transform="translate(690.2412,266.5168)"><path
             d="M 0,0 H 58.955 V -18.031 H 19.416 V -31.905 H 48.547 V -48.092 H 19.416 V -62.888 H 59.532 V -80.92 H 0 Z"
             style="fill:#fbdd00;fill-opacity:1;fill-rule:nonzero;stroke:none"
             id="path422"
             inkscape:connector-curvature="0" /></g><g
           id="g424"
           transform="translate(759.5068,266.5168)"><path
             d="M 0,0 H 19.416 V -62.888 H 55.715 V -80.92 H 0 Z"
             style="fill:#fbdd00;fill-opacity:1;fill-rule:nonzero;stroke:none"
             id="path426"
             inkscape:connector-curvature="0" /></g><g
           id="g428"
           transform="translate(859.0518,202.3596)"><path
             d="M 0,0 C 13.407,0 23.118,9.249 23.118,23.694 23.118,38.261 13.407,47.51 0,47.51 -13.412,47.51 -23.123,38.261 -23.123,23.694 -23.123,9.249 -13.412,0 0,0 m 0,65.771 c 24.738,0 42.654,-17.338 42.654,-42.077 0,-24.737 -17.916,-42.077 -42.654,-42.077 -24.737,0 -42.66,17.34 -42.66,42.077 0,24.739 17.923,42.077 42.66,42.077"
             style="fill:#fbdd00;fill-opacity:1;fill-rule:nonzero;stroke:none"
             id="path430"
             inkscape:connector-curvature="0" /></g><g
           id="g432"
           transform="translate(980.688,221.6662)"><path
             d="m 0,0 c 0,-24.393 -14.104,-37.689 -35.256,-37.689 -21.272,0 -35.261,13.296 -35.261,37.689 v 44.851 h 19.652 V 0.576 c 0,-13.874 5.317,-19.883 15.84,-19.883 10.402,0 15.835,6.009 15.835,19.883 V 44.851 H 0 Z"
             style="fill:#fbdd00;fill-opacity:1;fill-rule:nonzero;stroke:none"
             id="path434"
             inkscape:connector-curvature="0" /></g><g
           id="g436"
           transform="translate(1022.0967,227.674)"><path
             d="M 0,0 C 8.206,0 11.907,4.279 11.907,10.634 11.907,16.994 8.206,21.157 0,21.157 H -11.331 V 0 Z m -0.577,38.843 c 19.883,0 31.906,-10.518 31.906,-27.858 0,-16.993 -12.023,-27.863 -31.906,-27.863 h -10.754 v -25.199 h -19.416 v 80.92 z"
             style="fill:#fbdd00;fill-opacity:1;fill-rule:nonzero;stroke:none"
             id="path438"
             inkscape:connector-curvature="0" /></g><g
           id="g440"
           transform="translate(1060.7314,266.5168)"><path
             d="M 0,0 H 58.956 V -18.031 H 19.416 V -31.905 H 48.547 V -48.092 H 19.416 V -62.888 H 59.532 V -80.92 H 0 Z"
             style="fill:#fbdd00;fill-opacity:1;fill-rule:nonzero;stroke:none"
             id="path442"
             inkscape:connector-curvature="0" /></g><g
           id="g444"
           transform="translate(108.79,117.0637)"><path
             d="m 0,0 c 0.496,-3.679 3.753,-6.654 9.705,-6.654 4.67,0 7.715,1.839 7.715,5.806 0,5.311 -5.449,5.668 -12.392,7.151 C 0,7.438 -5.951,9.422 -5.951,17.213 c 0,7.645 5.599,11.544 14.802,11.544 8.43,0 14.027,-3.333 15.792,-9.774 l -6.586,-1.701 c -0.92,3.471 -3.682,5.593 -8.779,5.593 -4.815,0 -7.652,-1.84 -7.652,-5.311 0,-4.105 3.967,-4.959 10.27,-6.158 C 16.999,10.414 25,8.5 25,-0.703 25,-8.921 18.623,-12.461 9.705,-12.461 c -6.592,0 -14.803,1.908 -16.504,10.69 z"
             style="fill:#ffffff;fill-opacity:1;fill-rule:nonzero;stroke:none"
             id="path446"
             inkscape:connector-curvature="0" /></g><g
           id="g448"
           transform="translate(169.8642,128.7521)"><path
             d="m 0,0 c -2.56,6.799 -3.552,9.981 -3.621,10.057 h -0.208 l -3.828,-10.484 -2.618,-7.15 H 2.826 Z m -12.617,-14.024 -3.459,-9.347 h -7.577 l 15.5,39.661 H 0.842 L 16.354,-23.371 H 8.638 l -3.471,9.347 z"
             style="fill:#ffffff;fill-opacity:1;fill-rule:nonzero;stroke:none"
             id="path450"
             inkscape:connector-curvature="0" /></g><path
           d="m 201.337,145.042 h 7.427 v -39.661 h -7.427 z"
           style="fill:#ffffff;fill-opacity:1;fill-rule:nonzero;stroke:none"
           id="path452"
           inkscape:connector-curvature="0" /><g
           id="g454"
           transform="translate(255.0224,105.381)"><path
             d="m 0,0 -20.183,28.255 h -0.207 c 0,-0.069 0.139,-4.319 0.139,-8.995 V 0 h -7.439 v 39.661 h 7.646 L 0.139,11.971 h 0.149 c 0,0.069 -0.08,3.961 -0.08,8.142 V 39.661 H 7.646 L 7.646,0 Z"
             style="fill:#ffffff;fill-opacity:1;fill-rule:nonzero;stroke:none"
             id="path456"
             inkscape:connector-curvature="0" /></g><g
           id="g458"
           transform="translate(299.7466,138.0988)"><path
             d="M 0,0 V -32.718 H -7.438 V 0 H -20.897 V 6.943 H 13.378 V 0 Z"
             style="fill:#ffffff;fill-opacity:1;fill-rule:nonzero;stroke:none"
             id="path460"
             inkscape:connector-curvature="0" /></g><path
           d="m 327.875,128.891 h 27.552 v -6.511 h -27.552 z"
           style="fill:#ffffff;fill-opacity:1;fill-rule:nonzero;stroke:none"
           id="path462"
           inkscape:connector-curvature="0" /><g
           id="g464"
           transform="translate(408.7085,124.2892)"><path
             d="M 0,0 0.069,9.843 H -0.139 L -10.345,-9.348 h -4.879 L -25.568,10.27 h -0.139 c 0,-0.07 0.07,-6.234 0.07,-9.844 v -19.334 h -7.22 v 39.661 h 9.065 l 7.288,-13.315 c 2.549,-4.607 3.968,-7.652 4.037,-7.652 h 0.219 c 0.139,0 1.626,3.045 4.175,7.721 l 7.15,13.246 H 7.438 V -18.908 H 0 Z"
             style="fill:#ffffff;fill-opacity:1;fill-rule:nonzero;stroke:none"
             id="path466"
             inkscape:connector-curvature="0" /></g><g
           id="g468"
           transform="translate(454.9199,128.7521)"><path
             d="m 0,0 c -2.56,6.799 -3.552,9.981 -3.621,10.057 h -0.208 l -3.828,-10.484 -2.618,-7.15 H 2.826 Z m -12.617,-14.024 -3.459,-9.347 h -7.577 l 15.5,39.661 H 0.842 L 16.354,-23.371 H 8.638 l -3.471,9.347 z"
             style="fill:#ffffff;fill-opacity:1;fill-rule:nonzero;stroke:none"
             id="path470"
             inkscape:connector-curvature="0" /></g><g
           id="g472"
           transform="translate(486.3931,145.0422)"><path
             d="m 0,0 h 7.427 v -32.719 h 19.549 v -6.942 H 0 Z"
             style="fill:#ffffff;fill-opacity:1;fill-rule:nonzero;stroke:none"
             id="path474"
             inkscape:connector-curvature="0" /></g><g
           id="g476"
           transform="translate(545.8911,111.4006)"><path
             d="m 0,0 c 7.796,0 13.528,5.594 13.528,13.811 0,8.211 -5.732,13.81 -13.528,13.81 -7.785,0 -13.448,-5.599 -13.448,-13.81 C -13.448,5.594 -7.785,0 0,0 m 0,34.42 c 12.04,0 21.105,-8.644 21.105,-20.609 C 21.105,1.771 12.04,-6.798 0,-6.798 c -11.959,0 -20.955,8.569 -20.955,20.609 0,11.965 8.996,20.609 20.955,20.609"
             style="fill:#ffffff;fill-opacity:1;fill-rule:nonzero;stroke:none"
             id="path478"
             inkscape:connector-curvature="0" /></g><g
           id="g480"
           transform="translate(667.9771,105.381)"><path
             d="m 0,0 c 0,3.967 0.069,4.677 0.069,4.959 h -0.138 c -1.915,-2.197 -6.516,-5.737 -13.667,-5.737 -11.751,0 -20.747,8.568 -20.747,20.608 0,11.897 8.846,20.609 21.105,20.609 7.854,0 15.5,-3.615 18.902,-11.688 l -6.793,-1.84 c -1.845,3.541 -6.02,6.799 -12.04,6.799 -8.073,0 -13.666,-5.311 -13.666,-13.88 0,-8.286 5.663,-13.88 14.589,-13.88 5.662,0 10.691,2.832 12.317,5.029 v 4.106 H -11.475 V 21.67 H 6.654 V 0 Z"
             style="fill:#ffffff;fill-opacity:1;fill-rule:nonzero;stroke:none"
             id="path482"
             inkscape:connector-curvature="0" /></g><g
           id="g484"
           transform="translate(726.7134,123.1584)"><path
             d="m 0,0 c 0,-12.68 -6.654,-18.556 -17.564,-18.556 -10.899,0 -17.496,5.876 -17.496,18.556 v 21.884 h 7.589 V -0.709 c 0,-7.508 3.252,-11.049 10.045,-11.049 6.735,0 10.057,3.541 10.057,11.049 V 21.884 H 0 Z"
             style="fill:#ffffff;fill-opacity:1;fill-rule:nonzero;stroke:none"
             id="path486"
             inkscape:connector-curvature="0" /></g><g
           id="g488"
           transform="translate(762.5801,128.7521)"><path
             d="m 0,0 c -2.56,6.799 -3.552,9.981 -3.621,10.057 h -0.208 l -3.828,-10.484 -2.618,-7.15 H 2.826 Z m -12.617,-14.024 -3.459,-9.347 h -7.577 l 15.5,39.661 H 0.842 L 16.354,-23.371 H 8.638 l -3.471,9.347 z"
             style="fill:#ffffff;fill-opacity:1;fill-rule:nonzero;stroke:none"
             id="path490"
             inkscape:connector-curvature="0" /></g><g
           id="g492"
           transform="translate(808.7114,112.3234)"><path
             d="m 0,0 c 8.569,0 14.37,3.962 14.37,12.744 0,8.713 -5.732,13.031 -14.589,13.031 H -7.231 L -7.231,0 Z m -0.149,32.719 c 12.754,0 22.026,-7.508 22.026,-19.975 0,-12.537 -9.272,-19.686 -21.808,-19.686 h -14.727 v 39.661 z"
             style="fill:#ffffff;fill-opacity:1;fill-rule:nonzero;stroke:none"
             id="path494"
             inkscape:connector-curvature="0" /></g><g
           id="g496"
           transform="translate(846.77,145.0422)"><path
             d="M 0,0 H 28.958 V -6.943 H 7.427 v -9.065 h 16.226 v -6.585 H 7.427 v -10.126 h 21.889 v -6.942 H 0 Z"
             style="fill:#ffffff;fill-opacity:1;fill-rule:nonzero;stroke:none"
             id="path498"
             inkscape:connector-curvature="0" /></g><g
           id="g500"
           transform="translate(893.1084,145.0422)"><path
             d="m 0,0 h 7.427 v -32.719 h 19.549 v -6.942 H 0 Z"
             style="fill:#ffffff;fill-opacity:1;fill-rule:nonzero;stroke:none"
             id="path502"
             inkscape:connector-curvature="0" /></g><g
           id="g504"
           transform="translate(952.6172,111.4006)"><path
             d="m 0,0 c 7.785,0 13.528,5.594 13.528,13.811 0,8.211 -5.743,13.81 -13.528,13.81 -7.796,0 -13.458,-5.599 -13.458,-13.81 C -13.458,5.594 -7.796,0 0,0 m 0,34.42 c 12.041,0 21.105,-8.644 21.105,-20.609 0,-12.04 -9.064,-20.609 -21.105,-20.609 -11.971,0 -20.966,8.569 -20.966,20.609 0,11.965 8.995,20.609 20.966,20.609"
             style="fill:#ffffff;fill-opacity:1;fill-rule:nonzero;stroke:none"
             id="path506"
             inkscape:connector-curvature="0" /></g><g
           id="g508"
           transform="translate(1024.3169,123.1584)"><path
             d="m 0,0 c 0,-12.68 -6.666,-18.556 -17.564,-18.556 -10.91,0 -17.496,5.876 -17.496,18.556 v 21.884 h 7.577 V -0.709 c 0,-7.508 3.253,-11.049 10.057,-11.049 6.723,0 10.057,3.541 10.057,11.049 V 21.884 H 0 Z"
             style="fill:#ffffff;fill-opacity:1;fill-rule:nonzero;stroke:none"
             id="path510"
             inkscape:connector-curvature="0" /></g><g
           id="g512"
           transform="translate(1056.7007,125.2805)"><path
             d="m 0,0 c 5.386,0 8.084,2.618 8.084,6.586 0,3.822 -2.629,6.585 -8.084,6.585 H -6.862 V 0 Z m -0.277,19.762 c 10.127,0 15.939,-5.173 15.939,-13.033 0,-7.934 -5.812,-12.887 -15.939,-12.887 h -6.585 v -13.741 h -7.439 v 39.661 z"
             style="fill:#ffffff;fill-opacity:1;fill-rule:nonzero;stroke:none"
             id="path514"
             inkscape:connector-curvature="0" /></g><g
           id="g516"
           transform="translate(1087.7471,145.0422)"><path
             d="M 0,0 H 28.971 V -6.943 H 7.439 v -9.065 h 16.215 v -6.585 H 7.439 v -10.126 h 21.878 v -6.942 H 0 Z"
             style="fill:#ffffff;fill-opacity:1;fill-rule:nonzero;stroke:none"
             id="path518"
             inkscape:connector-curvature="0" /></g><g
           id="g520"
           transform="translate(591.9585,104.0666)"><path
             d="m 0,0 -6.481,0.559 23.256,37.747 6.366,-0.548 z"
             style="fill:#ffffff;fill-opacity:1;fill-rule:nonzero;stroke:none"
             id="path522"
             inkscape:connector-curvature="0" /></g></g></g><g
       id="g524"><g
         id="g526"
         clip-path="url(#clipPath530)"><g
           id="g532"><g
             id="g534"><path
               d="M 1808.321,1026.668 1697.789,916.133 c -2.06,-2.059 -3.218,-4.852 -3.218,-7.765 v 0 -63.206 h 65.257 v 63.468 c 0,1.766 1.432,3.199 3.198,3.199 v 0 h 35.578 c 1.768,0 3.2,-1.433 3.2,-3.199 v 0 -63.468 h 63.208 c 1.766,0 3.199,-1.432 3.199,-3.198 v 0 -35.579 c 0,-1.767 -1.433,-3.199 -3.199,-3.199 v 0 h -63.208 v -63.467 c 0,-1.767 -1.432,-3.199 -3.2,-3.199 v 0 h -35.578 c -1.766,0 -3.198,1.432 -3.198,3.199 v 0 63.467 h -65.257 V 649.274 c 0,-6.064 4.917,-10.98 10.982,-10.98 v 0 h 259.102 c 2.912,0 5.705,1.157 7.764,3.216 v 0 l 110.535,110.534 v 267.288 c 0,4.052 -3.285,7.336 -7.336,7.336 v 0 z m 173.364,-115.953 c 0.516,0.702 1.337,1.117 2.209,1.117 v 0 h 44.766 c 1.41,0 2.221,-1.601 1.385,-2.736 v 0 l -60.814,-82.677 c -0.712,-0.97 -0.71,-2.291 0.01,-3.257 v 0 l 60.922,-82.269 c 1.34,-1.809 0.048,-4.373 -2.204,-4.373 v 0 h -42.653 c -0.869,0 -1.687,0.413 -2.204,1.11 v 0 l -39.868,53.839 -39.806,-53.753 c -0.558,-0.752 -1.438,-1.196 -2.375,-1.196 v 0 h -42.122 c -2.428,0 -3.819,2.763 -2.375,4.713 v 0 l 60.577,81.803 c 0.771,1.041 0.773,2.465 0.01,3.509 v 0 l -60.72,82.551 c -0.835,1.135 -0.024,2.736 1.383,2.736 v 0 h 44.66 c 0.939,0 1.822,-0.447 2.38,-1.204 v 0 l 38.393,-52.196 38.455,52.283 z"
               style="fill:url(#linearGradient546);stroke:none"
               id="path548"
               inkscape:connector-curvature="0" /></g></g></g></g><g
       id="g550"><g
         id="g552"
         clip-path="url(#clipPath556)"><g
           id="g558"
           transform="translate(2307.6265,466.8605)"><path
             d="m 0,0 h -12.529 c -0.294,0 -0.534,-0.253 -0.534,-0.547 v -70.964 c 0,-0.294 0.24,-0.533 0.534,-0.533 H 0 c 0.294,0 0.534,0.239 0.534,0.533 V -0.547 C 0.534,-0.253 0.294,0 0,0"
             style="fill:#043263;fill-opacity:1;fill-rule:nonzero;stroke:none"
             id="path560"
             inkscape:connector-curvature="0" /></g><g
           id="g562"
           transform="translate(1970.4048,430.8312)"><path
             d="m 0,0 c 0,-14.041 -10.514,-25.04 -23.937,-25.04 -13.431,0 -23.953,10.999 -23.953,25.04 0,14.041 10.522,25.04 23.953,25.04 C -10.514,25.04 0,14.041 0,0 M -23.937,37.548 C -45.06,37.548 -61.605,21.055 -61.605,0 c 0,-21.055 16.545,-37.548 37.668,-37.548 21.172,0 37.757,16.493 37.757,37.548 0,21.055 -16.585,37.548 -37.757,37.548"
             style="fill:#043263;fill-opacity:1;fill-rule:nonzero;stroke:none"
             id="path564"
             inkscape:connector-curvature="0" /></g><g
           id="g566"
           transform="translate(2028.8667,427.2004)"><path
             d="M 0,0 H -18.024 V 27.465 H 0 C 9.616,27.465 16.077,22.23 16.077,14.44 16.077,5.803 9.616,0 0,0 m 0.551,39.66 h -31.78 c -0.225,0 -0.408,-0.196 -0.408,-0.421 v -71.216 c 0,-0.224 0.183,-0.407 0.408,-0.407 h 12.797 c 0.225,0 0.408,0.183 0.408,0.407 v 19.9 h 16.491 c 18.831,0 30.998,10.409 30.998,26.517 0,15.312 -11.35,25.22 -28.914,25.22"
             style="fill:#043263;fill-opacity:1;fill-rule:nonzero;stroke:none"
             id="path568"
             inkscape:connector-curvature="0" /></g><g
           id="g570"
           transform="translate(1869.6538,427.2004)"><path
             d="M 0,0 H -18.024 V 27.465 H 0 C 9.616,27.465 16.076,22.23 16.076,14.44 16.076,5.803 9.616,0 0,0 m 0.551,39.66 h -31.78 c -0.225,0 -0.408,-0.196 -0.408,-0.421 v -71.216 c 0,-0.224 0.183,-0.407 0.408,-0.407 h 12.797 c 0.225,0 0.408,0.183 0.408,0.407 v 19.9 h 16.491 c 18.83,0 30.998,10.409 30.998,26.517 0,15.312 -11.35,25.22 -28.914,25.22"
             style="fill:#043263;fill-opacity:1;fill-rule:nonzero;stroke:none"
             id="path572"
             inkscape:connector-curvature="0" /></g><g
           id="g574"
           transform="translate(2135.6606,466.8605)"><path
             d="m 0,0 h -12.692 c -0.226,0 -0.409,-0.196 -0.409,-0.421 v -39.106 c 0,-12.947 -7.644,-21.645 -19.023,-21.645 -11.246,0 -18.802,8.698 -18.802,21.645 v 39.106 c 0,0.225 -0.182,0.421 -0.407,0.421 h -12.692 c -0.225,0 -0.408,-0.196 -0.408,-0.421 v -39.002 c 0,-21.132 12.38,-34.26 32.309,-34.26 20.066,0 32.531,13.128 32.531,34.26 V -0.421 C 0.407,-0.196 0.225,0 0,0"
             style="fill:#043263;fill-opacity:1;fill-rule:nonzero;stroke:none"
             id="path576"
             inkscape:connector-curvature="0" /></g><g
           id="g578"
           transform="translate(2197.4644,406.675)"><path
             d="m 0,0 h -32.359 v 59.764 c 0,0.225 -0.183,0.422 -0.408,0.422 h -12.796 c -0.225,0 -0.408,-0.197 -0.408,-0.422 V -7.98 c 0,-2.132 1.729,-3.865 3.857,-3.878 h 37.477 c 1.15,0.013 2.137,0.717 2.561,1.718 l 3.412,8.154 C 1.405,-1.818 1.443,-1.634 1.443,-1.44 1.443,-0.644 0.797,0 0,0"
             style="fill:#043263;fill-opacity:1;fill-rule:nonzero;stroke:none"
             id="path580"
             inkscape:connector-curvature="0" /></g><g
           id="g582"
           transform="translate(2231.8022,421.2014)"><path
             d="M 0,0 12.561,31.279 25.376,0 Z m 19.488,45.829 c -0.064,0.15 -0.212,0.248 -0.375,0.248 H 6.257 c -0.163,0 -0.31,-0.098 -0.374,-0.247 L -24.8,-25.817 c -0.054,-0.125 -0.041,-0.271 0.034,-0.385 0.076,-0.114 0.204,-0.183 0.34,-0.183 h 13.486 c 0.166,0 0.315,0.101 0.377,0.255 l 5.682,14.053 h 35.132 l 5.696,-14.054 c 0.063,-0.153 0.212,-0.254 0.378,-0.254 h 13.366 c 0.137,0 0.265,0.069 0.34,0.183 0.075,0.114 0.088,0.259 0.034,0.385 z"
             style="fill:#043263;fill-opacity:1;fill-rule:nonzero;stroke:none"
             id="path584"
             inkscape:connector-curvature="0" /></g><g
           id="g586"
           transform="translate(2341.0562,454.6652)"><path
             d="m 0,0 h 16.404 c 9.005,0 15.54,-5.158 15.54,-12.266 0,-7.099 -6.535,-12.252 -15.54,-12.252 H 0 Z m 30.683,-34.222 1.177,0.574 0.002,0.001 c 8.562,4.227 13.471,12.021 13.471,21.381 0,14.622 -11.404,24.461 -28.378,24.461 h -30.159 c -0.225,0 -0.407,-0.196 -0.407,-0.421 v -71.215 c 0,-0.225 0.182,-0.408 0.407,-0.408 h 12.797 c 0.224,0 0.407,0.183 0.407,0.408 v 22.624 H 16.652 L 32.8,-59.677 c 0.076,-0.108 0.2,-0.172 0.333,-0.172 h 15.141 c 0.154,0 0.293,0.085 0.363,0.222 0.069,0.135 0.057,0.299 -0.032,0.423 z"
             style="fill:#043263;fill-opacity:1;fill-rule:nonzero;stroke:none"
             id="path588"
             inkscape:connector-curvature="0" /></g><g
           id="g590"
           transform="translate(2403.1343,466.8605)"><path
             d="m 0,0 c -0.225,0 -0.407,-0.183 -0.407,-0.407 v -67.756 c 0,-2.141 1.742,-3.881 3.882,-3.881 h 39.498 c 0.887,0 1.732,0.428 2.259,1.144 l 6.449,8.627 c 0.179,0.24 0.286,0.539 0.286,0.862 0,0.797 -0.646,1.443 -1.444,1.443 H 13.229 v 17.415 h 25.754 c 0.225,0 0.408,0.183 0.408,0.407 v 11.264 c 0,0.225 -0.183,0.407 -0.408,0.407 H 13.229 v 18.399 h 35.572 c 0.224,0 0.407,0.182 0.407,0.407 V -0.407 C 49.208,-0.183 49.025,0 48.801,0 Z"
             style="fill:#043263;fill-opacity:1;fill-rule:nonzero;stroke:none"
             id="path592"
             inkscape:connector-curvature="0" /></g><g
           id="g594"
           transform="translate(1735.269,466.8596)"><path
             d="m 0,0 c -0.226,0 -0.407,-0.182 -0.407,-0.407 v -67.755 c 0,-2.141 1.741,-3.882 3.882,-3.882 h 39.498 c 0.886,0 1.732,0.428 2.259,1.144 l 6.449,8.627 c 0.179,0.24 0.286,0.539 0.286,0.863 0,0.797 -0.647,1.442 -1.444,1.442 H 13.229 v 17.416 h 25.753 c 0.226,0 0.408,0.183 0.408,0.407 v 11.264 c 0,0.225 -0.182,0.407 -0.408,0.407 H 13.229 v 18.399 H 48.8 c 0.225,0 0.408,0.182 0.408,0.407 V -0.407 C 49.208,-0.183 49.025,0 48.8,0 Z"
             style="fill:#043263;fill-opacity:1;fill-rule:nonzero;stroke:none"
             id="path596"
             inkscape:connector-curvature="0" /></g><g
           id="g598"
           transform="translate(1685.481,393.1779)"><path
             d="m 0,0 c 20.066,0 32.532,13.133 32.532,34.272 v 39.002 c 0,0.225 -0.182,0.408 -0.407,0.408 H 19.447 c -0.224,0 -0.407,-0.183 -0.407,-0.408 V 34.168 c 0,-12.955 -7.651,-21.66 -19.04,-21.66 -11.246,0 -18.802,8.705 -18.802,21.66 v 39.106 c 0,0.225 -0.182,0.408 -0.407,0.408 h -12.677 c -0.224,0 -0.407,-0.183 -0.407,-0.408 V 34.272 C -32.293,13.133 -19.919,0 0,0"
             style="fill:#043263;fill-opacity:1;fill-rule:nonzero;stroke:none"
             id="path600"
             inkscape:connector-curvature="0" /></g><g
           id="g602"
           transform="translate(1576.1851,430.8303)"><path
             d="M 0,0 C 0,-14.033 10.515,-25.025 23.937,-25.025 37.368,-25.025 47.89,-14.033 47.89,0 47.89,14.041 37.368,25.04 23.937,25.04 10.515,25.04 0,14.041 0,0 m 68.054,-26.629 c 0,-0.294 -0.06,-0.542 -0.241,-0.796 l -6.578,-8.98 c -0.527,-0.716 -1.372,-1.144 -2.259,-1.144 H 23.654 c -10.128,0.127 -19.552,4.063 -26.541,11.081 -6.982,7.013 -10.829,16.413 -10.829,26.468 0,21.056 16.539,37.549 37.653,37.549 21.18,0 37.773,-16.493 37.773,-37.549 0,-8.643 -3.405,-17.226 -9.587,-24.17 l -1.536,-1.649 c 0,0 16.011,0.633 16.023,0.633 0.863,0.047 1.444,-0.59 1.444,-1.443"
             style="fill:#043263;fill-opacity:1;fill-rule:nonzero;stroke:none"
             id="path604"
             inkscape:connector-curvature="0" /></g><g
           id="g606"
           transform="translate(1548.4673,395.2228)"><path
             d="m 0,0 v 71.229 c 0,0.225 -0.182,0.408 -0.407,0.408 h -12.797 c -0.225,0 -0.407,-0.183 -0.407,-0.408 V 23.405 l -40.827,48.088 c -0.079,0.091 -0.192,0.144 -0.311,0.144 h -9.684 c -0.224,0 -0.407,-0.183 -0.407,-0.408 V 0 c 0,-0.225 0.183,-0.407 0.407,-0.407 h 12.797 c 0.226,0 0.408,0.182 0.408,0.407 V 46.581 L -10.74,-0.267 c 0.077,-0.089 0.189,-0.14 0.308,-0.14 H -0.407 C -0.182,-0.407 0,-0.225 0,0"
             style="fill:#043263;fill-opacity:1;fill-rule:nonzero;stroke:none"
             id="path608"
             inkscape:connector-curvature="0" /></g><g
           id="g610"
           transform="translate(1447.3296,421.05)"><path
             d="m 0,0 h -25.248 l 12.498,31.123 z m -5.862,45.581 c -0.064,0.15 -0.211,0.248 -0.374,0.248 h -12.781 c -0.163,0 -0.31,-0.098 -0.375,-0.247 l -30.51,-71.249 c -0.054,-0.126 -0.041,-0.27 0.034,-0.385 0.076,-0.114 0.203,-0.182 0.34,-0.182 h 13.401 c 0.166,0 0.315,0.1 0.377,0.255 l 5.65,13.974 H 4.847 l 5.664,-13.975 c 0.062,-0.154 0.212,-0.254 0.378,-0.254 h 13.282 c 0.137,0 0.265,0.068 0.34,0.182 0.075,0.115 0.088,0.259 0.035,0.385 z"
             style="fill:#043263;fill-opacity:1;fill-rule:nonzero;stroke:none"
             id="path612"
             inkscape:connector-curvature="0" /></g><g
           id="g614"
           transform="translate(1362.4556,406.2365)"><path
             d="M 0,0 H -19.498 V 18.727 H 0.446 c 8.081,0 12.906,-3.317 12.906,-8.872 C 13.352,5.309 9.854,0 0,0 m -19.479,49.202 h 16.774 c 12.145,0 13.457,-6.433 13.457,-9.2 0,-6.216 -5.156,-10.076 -13.457,-10.076 h -16.774 z m 34.265,-23.693 -1.212,0.311 1.073,0.52 c 3.908,1.946 8.719,6.91 8.719,15.85 0,11.542 -8.972,18.433 -24.002,18.433 h -32.048 c -0.224,0 -0.407,-0.183 -0.407,-0.407 V -7.54 c 0,-2.141 1.741,-3.881 3.882,-3.881 h 30.33 c 15.512,0 25.535,7.58 25.535,19.311 0,10.929 -5.885,15.402 -11.87,17.619"
             style="fill:#043263;fill-opacity:1;fill-rule:nonzero;stroke:none"
             id="path616"
             inkscape:connector-curvature="0" /></g><g
           id="g618"
           transform="translate(2194.0972,600.131)"><path
             d="m 0,0 c -0.332,0 -0.602,-0.27 -0.602,-0.602 v -100.093 c 0,-3.162 2.574,-5.734 5.735,-5.734 h 58.349 c 1.311,0 2.559,0.633 3.338,1.69 l 9.527,12.744 c 0.265,0.355 0.423,0.797 0.423,1.274 0,1.178 -0.956,2.132 -2.132,2.132 H 19.542 v 25.728 h 38.046 c 0.333,0 0.602,0.269 0.602,0.601 v 16.639 c 0,0.332 -0.269,0.602 -0.602,0.602 H 19.542 v 27.179 h 52.55 c 0.332,0 0.601,0.27 0.601,0.602 V -0.602 C 72.693,-0.27 72.424,0 72.092,0 Z"
             style="fill:#1592cc;fill-opacity:1;fill-rule:nonzero;stroke:none"
             id="path620"
             inkscape:connector-curvature="0" /></g><g
           id="g622"
           transform="translate(1386.2603,600.2717)"><path
             d="m 0,0 c 12.755,0 25.411,-2.843 37.969,-8.528 v -18.318 c -12.558,6.378 -24.917,9.568 -37.079,9.568 -7.565,0 -14.288,-1.509 -20.171,-4.525 -5.884,-3.015 -10.446,-7.353 -13.683,-13.014 -3.239,-5.662 -4.857,-11.977 -4.857,-18.949 0,-10.579 3.522,-19.094 10.567,-25.547 7.045,-6.452 16.327,-9.677 27.847,-9.677 3.164,0 6.192,0.271 9.085,0.815 2.891,0.544 6.34,1.582 10.345,3.115 v 17.205 H 2.893 v 15.648 h 37.153 v -42.716 c -5.093,-3.56 -11.211,-6.34 -18.355,-8.343 -7.144,-2.003 -14.572,-3.004 -22.284,-3.004 -10.928,0 -20.827,2.249 -29.701,6.749 -8.875,4.499 -15.796,10.802 -20.765,18.911 -4.968,8.108 -7.453,17.155 -7.453,27.141 0,10.135 2.509,19.306 7.528,27.514 5.016,8.206 12.013,14.583 20.986,19.133 C -21.024,-2.274 -11.025,0 0,0"
             style="fill:#1592cc;fill-opacity:1;fill-rule:nonzero;stroke:none"
             id="path624"
             inkscape:connector-curvature="0" /></g><g
           id="g626"
           transform="translate(1835.1577,509.7111)"><path
             d="m 0,0 c 11.394,0 20.538,3.42 27.431,10.262 6.892,6.842 10.34,15.807 10.34,26.897 0,11.496 -3.473,20.576 -10.417,27.24 -6.943,6.664 -16.29,9.997 -28.041,9.997 H -21.899 V 0 Z m 2.137,90.495 c 11.089,0 20.957,-2.264 29.605,-6.79 C 40.39,79.177 47.104,72.818 51.886,64.629 56.667,56.438 59.059,47.231 59.059,37.007 59.059,26.578 56.655,17.332 51.848,9.271 47.041,1.207 40.212,-5.036 31.36,-9.463 c -8.85,-4.425 -19,-6.638 -30.445,-6.638 H -42.501 V 90.495 Z"
             style="fill:#1592cc;fill-opacity:1;fill-rule:nonzero;stroke:none"
             id="path628"
             inkscape:connector-curvature="0" /></g><g
           id="g630"
           transform="translate(1971.0249,546.9094)"><path
             d="m 0,0 c 0,-6.88 1.56,-13.066 4.678,-18.561 3.118,-5.494 7.462,-9.751 13.03,-12.769 5.568,-3.021 11.865,-4.529 18.895,-4.529 10.641,0 19.389,3.34 26.246,10.022 6.854,6.682 10.282,15.295 10.282,25.837 0,6.879 -1.548,13.079 -4.641,18.598 -3.094,5.519 -7.45,9.788 -13.067,12.807 -5.617,3.019 -11.942,4.53 -18.969,4.53 -7.028,0 -13.351,-1.522 -18.969,-4.567 C 11.867,28.324 7.548,24.067 4.529,18.598 1.51,13.129 0,6.93 0,0 m 36.603,53.233 c 10.74,0 20.404,-2.215 28.993,-6.645 C 74.182,42.157 81.024,35.772 86.123,27.434 91.221,19.092 93.771,9.949 93.771,0 c 0,-9.701 -2.488,-18.698 -7.461,-26.987 -4.975,-8.291 -11.806,-14.726 -20.493,-19.304 -8.686,-4.578 -18.474,-6.867 -29.363,-6.867 -10.741,0 -20.504,2.326 -29.289,6.978 -8.786,4.653 -15.628,11.05 -20.528,19.193 -4.901,8.141 -7.351,17.137 -7.351,26.987 0,9.503 2.45,18.437 7.351,26.803 4.9,8.363 11.656,14.86 20.268,19.488 8.613,4.628 18.512,6.942 29.698,6.942"
             style="fill:#1592cc;fill-opacity:1;fill-rule:nonzero;stroke:none"
             id="path632"
             inkscape:connector-curvature="0" /></g><g
           id="g634"
           transform="translate(2099.2583,599.7775)"><path
             d="m 0,0 v -61.02 c 0,-6.254 0.938,-11.233 2.815,-14.935 1.876,-3.703 4.941,-6.755 9.194,-9.156 4.253,-2.403 9.207,-3.603 14.861,-3.603 6.204,0 11.471,1.137 15.8,3.414 4.326,2.277 7.492,5.378 9.493,9.308 2.002,3.928 3.003,9.368 3.003,16.324 V 0 h 20.265 v -62.295 c 0,-14.111 -4.229,-24.956 -12.685,-32.537 -8.456,-7.58 -20.414,-11.37 -35.876,-11.37 -9.708,0 -18.126,1.725 -25.257,5.179 -7.13,3.453 -12.571,8.443 -16.324,14.973 -3.752,6.529 -5.629,14.197 -5.629,23.004 l 0,63.046 z"
             style="fill:#1592cc;fill-opacity:1;fill-rule:nonzero;stroke:none"
             id="path636"
             inkscape:connector-curvature="0" /></g><g
           id="g638"
           transform="translate(2316.0669,600.631)"><path
             d="m 0,0 c 10.161,0 19.948,-2.539 29.361,-7.619 v -17.93 c -10.808,6.524 -20.395,9.786 -28.762,9.786 -5.08,0 -9.053,-0.983 -11.916,-2.951 -2.865,-1.968 -4.296,-4.595 -4.296,-7.881 0,-3.935 2.664,-7.572 7.993,-10.908 1.495,-0.996 7.248,-3.785 17.259,-8.367 8.565,-4.034 14.741,-8.517 18.526,-13.447 3.786,-4.931 5.678,-10.859 5.678,-17.782 0,-8.964 -3.224,-16.199 -9.674,-21.702 -6.45,-5.504 -14.805,-8.255 -25.065,-8.255 -6.675,0 -12.415,0.736 -17.22,2.203 -4.807,1.469 -10.197,3.998 -16.173,7.583 v 19.873 c 11.155,-9.264 21.664,-13.896 31.525,-13.896 4.931,0 8.914,1.071 11.953,3.213 3.04,2.141 4.558,4.979 4.558,8.517 0,4.831 -2.641,8.765 -7.918,11.803 -4.384,2.392 -10.038,5.255 -16.959,8.592 -8.219,3.735 -14.357,8.093 -18.416,13.073 -4.059,4.981 -6.089,10.759 -6.089,17.333 0,8.765 3.261,15.75 9.787,20.955 C -19.324,-2.603 -10.708,0 0,0"
             style="fill:#1592cc;fill-opacity:1;fill-rule:nonzero;stroke:none"
             id="path640"
             inkscape:connector-curvature="0" /></g><g
           id="g642"
           transform="translate(2455.1812,600.2062)"><path
             d="m 0,0 v -16.1 h -37.846 v -90.496 H -58.448 V -16.1 H -96.295 V 0 Z"
             style="fill:#1592cc;fill-opacity:1;fill-rule:nonzero;stroke:none"
             id="path644"
             inkscape:connector-curvature="0" /></g><g
           id="g646"
           transform="translate(1465.2153,582.4601)"><path
             d="m 0,0 h 24.245 c 13.308,0 22.966,-7.625 22.966,-18.129 0,-10.491 -9.658,-18.106 -22.966,-18.106 H 0 Z m 45.346,-50.577 1.741,0.847 0.003,10e-4 c 12.653,6.249 19.909,17.766 19.909,31.6 0,21.61 -16.854,36.151 -41.94,36.151 h -44.573 c -0.332,0 -0.602,-0.29 -0.602,-0.622 V -87.85 c 0,-0.332 0.27,-0.602 0.602,-0.602 h 18.912 c 0.332,0 0.602,0.27 0.602,0.602 v 33.437 h 24.611 l 23.865,-33.784 c 0.113,-0.16 0.295,-0.255 0.492,-0.255 h 22.378 c 0.225,0 0.433,0.126 0.535,0.328 0.103,0.2 0.085,0.442 -0.046,0.626 z"
             style="fill:#1592cc;fill-opacity:1;fill-rule:nonzero;stroke:none"
             id="path648"
             inkscape:connector-curvature="0" /></g><g
           id="g650"
           transform="translate(1771.1421,494.2101)"><path
             d="m 0,0 v 104.822 c 0,0.331 -0.269,0.6 -0.6,0.6 h -18.832 c -0.331,0 -0.599,-0.269 -0.599,-0.6 V 34.444 l -60.083,70.767 c -0.114,0.134 -0.281,0.211 -0.456,0.211 h -14.25 c -0.331,0 -0.6,-0.269 -0.6,-0.6 V 0 c 0,-0.331 0.269,-0.6 0.6,-0.6 h 18.832 c 0.331,0 0.599,0.269 0.599,0.6 v 68.549 l 59.583,-68.941 c 0.114,-0.131 0.279,-0.208 0.453,-0.208 H -0.6 C -0.269,-0.6 0,-0.331 0,0"
             style="fill:#1592cc;fill-opacity:1;fill-rule:nonzero;stroke:none"
             id="path652"
             inkscape:connector-curvature="0" /></g><g
           id="g654"
           transform="translate(1624.4897,532.7385)"><path
             d="m 0,0 h -37.173 l 18.401,45.822 z m -8.631,67.11 c -0.095,0.221 -0.311,0.365 -0.552,0.365 h -18.816 c -0.24,0 -0.456,-0.144 -0.551,-0.365 L -73.472,-37.789 c -0.079,-0.186 -0.06,-0.399 0.051,-0.566 0.11,-0.168 0.299,-0.27 0.5,-0.27 h 19.731 c 0.244,0 0.463,0.148 0.555,0.375 l 8.318,20.576 H 7.135 l 8.34,-20.577 c 0.091,-0.227 0.311,-0.374 0.555,-0.374 h 19.557 c 0.201,0 0.39,0.102 0.5,0.27 0.111,0.167 0.13,0.379 0.051,0.565 z"
             style="fill:#1592cc;fill-opacity:1;fill-rule:nonzero;stroke:none"
             id="path656"
             inkscape:connector-curvature="0" /></g></g></g><text
       transform="matrix(1,0,0,-1,1292.6699,125.6582)"
       style="font-variant:normal;font-weight:bold;font-stretch:normal;font-size:77.02140045px;font-family:'Novecento wide UltraLight';-inkscape-font-specification:Novecentowide-Medium;writing-mode:lr-tb;fill:#006f7a;fill-opacity:1;fill-rule:nonzero;stroke:none"
       id="text660"><tspan
         x="0 54.454128 122.77211 186.23775 246.46848 309.78006 381.8721 450.18237 486.30542 550.46423 613.77582 680.32233 741.0152 805.17401 841.29706 913.92822 985.55811 1021.6812 1076.1353 1144.4532"
         y="0"
         sodipodi:role="line"
         id="tspan658">PARTENAIRE PRINCIPAL</tspan></text>
<g
       id="g662"><g
         id="g664"
         clip-path="url(#clipPath668)"><g
           id="g670"
           transform="translate(1334.9019,272.5187)"><path
             d="M 0,0 H 1116.936"
             style="fill:#006f7a;fill-opacity:1;fill-rule:nonzero;stroke:#006f7a;stroke-width:3;stroke-linecap:butt;stroke-linejoin:miter;stroke-miterlimit:10;stroke-dasharray:none;stroke-opacity:1"
             id="path672"
             inkscape:connector-curvature="0" /></g></g></g></g></svg>