<?xml version="1.0" encoding="UTF-8" standalone="no"?>
<!-- Created with Inkscape (http://www.inkscape.org/) -->

<svg
   xmlns:dc="http://purl.org/dc/elements/1.1/"
   xmlns:cc="http://creativecommons.org/ns#"
   xmlns:rdf="http://www.w3.org/1999/02/22-rdf-syntax-ns#"
   xmlns:svg="http://www.w3.org/2000/svg"
   xmlns="http://www.w3.org/2000/svg"
   xmlns:sodipodi="http://sodipodi.sourceforge.net/DTD/sodipodi-0.dtd"
   xmlns:inkscape="http://www.inkscape.org/namespaces/inkscape"
   width="26"
   height="26"
   viewBox="0 0 6.8791665 6.8791669"
   version="1.1"
   id="svg8"
   inkscape:version="0.92.1 r15371"
   sodipodi:docname="equipe.svg">
  <defs
     id="defs2" />
  <sodipodi:namedview
     id="base"
     pagecolor="#ffffff"
     bordercolor="#666666"
     borderopacity="1.0"
     inkscape:pageopacity="0.0"
     inkscape:pageshadow="2"
     inkscape:zoom="15.839192"
     inkscape:cx="14.928498"
     inkscape:cy="13.529317"
     inkscape:document-units="mm"
     inkscape:current-layer="layer1"
     showgrid="false"
     units="px"
     inkscape:window-width="1920"
     inkscape:window-height="1021"
     inkscape:window-x="0"
     inkscape:window-y="0"
     inkscape:window-maximized="1"
     showguides="false" />
  <metadata
     id="metadata5">
    <rdf:RDF>
      <cc:Work
         rdf:about="">
        <dc:format>image/svg+xml</dc:format>
        <dc:type
           rdf:resource="http://purl.org/dc/dcmitype/StillImage" />
        <dc:title></dc:title>
      </cc:Work>
    </rdf:RDF>
  </metadata>
  <g
     inkscape:label="Calque 1"
     inkscape:groupmode="layer"
     id="layer1"
     transform="translate(0,-290.12082)">
    <rect
       style="fill:#ffffff;fill-opacity:0;stroke:none;stroke-width:0.2610814;stroke-linecap:round;stroke-linejoin:round;stroke-miterlimit:4;stroke-dasharray:none;stroke-dashoffset:0;stroke-opacity:1"
       id="rect1400"
       width="6.8791666"
       height="6.8791666"
       x="0"
       y="290.12082"
       rx="0"
       ry="0" />
    <path
       style="fill:#ffffff;fill-opacity:1;stroke:#000000;stroke-width:0.26499999;stroke-linecap:round;stroke-linejoin:round;stroke-miterlimit:4;stroke-dasharray:none;stroke-dashoffset:0;stroke-opacity:1"
       id="path1316"
       sodipodi:type="arc"
       sodipodi:cx="3.4452493"
       sodipodi:cy="-295.88287"
       sodipodi:rx="0.83521724"
       sodipodi:ry="0.83521724"
       sodipodi:start="0"
       sodipodi:end="3.1415927"
       d="m 4.2804666,-295.88287 a 0.83521724,0.83521724 0 0 1 -0.4176087,0.72332 0.83521724,0.83521724 0 0 1 -0.8352172,0 0.83521724,0.83521724 0 0 1 -0.4176086,-0.72332 l 0.8352172,0 z"
       transform="scale(1,-1)" />
    <circle
       style="fill:#ffffff;fill-opacity:1;stroke:#000000;stroke-width:0.26499999;stroke-linecap:round;stroke-linejoin:round;stroke-miterlimit:4;stroke-dasharray:none;stroke-dashoffset:0;stroke-opacity:1"
       id="path1318"
       cx="3.4452493"
       cy="294.42969"
       r="0.61806077" />
    <path
       transform="scale(1,-1)"
       d="m 4.2804666,-295.88287 a 0.83521724,0.83521724 0 0 1 -0.4176087,0.72332 0.83521724,0.83521724 0 0 1 -0.8352172,0 0.83521724,0.83521724 0 0 1 -0.4176086,-0.72332 l 0.8352172,0 z"
       sodipodi:end="3.1415927"
       sodipodi:start="0"
       sodipodi:ry="0.83521724"
       sodipodi:rx="0.83521724"
       sodipodi:cy="-295.88287"
       sodipodi:cx="3.4452493"
       sodipodi:type="arc"
       id="path1320"
       style="fill:#ffffff;fill-opacity:1;stroke:#000000;stroke-width:0.26499999;stroke-linecap:round;stroke-linejoin:round;stroke-miterlimit:4;stroke-dasharray:none;stroke-dashoffset:0;stroke-opacity:1" />
    <circle
       r="0.61806077"
       cy="294.42969"
       cx="3.4452493"
       id="circle1322"
       style="fill:#ffffff;fill-opacity:1;stroke:#000000;stroke-width:0.26499999;stroke-linecap:round;stroke-linejoin:round;stroke-miterlimit:4;stroke-dasharray:none;stroke-dashoffset:0;stroke-opacity:1" />
    <path
       transform="scale(1,-1)"
       d="m 2.4477736,-294.91937 a 0.83521724,0.83521724 0 0 1 -0.4176087,0.72332 0.83521724,0.83521724 0 0 1 -0.8352172,0 0.83521724,0.83521724 0 0 1 -0.4176086,-0.72332 l 0.8352172,0 z"
       sodipodi:end="3.1415927"
       sodipodi:start="0"
       sodipodi:ry="0.83521724"
       sodipodi:rx="0.83521724"
       sodipodi:cy="-294.91937"
       sodipodi:cx="1.6125563"
       sodipodi:type="arc"
       id="path1328"
       style="fill:#ffffff;fill-opacity:1;stroke:#000000;stroke-width:0.26499999;stroke-linecap:round;stroke-linejoin:round;stroke-miterlimit:4;stroke-dasharray:none;stroke-dashoffset:0;stroke-opacity:1" />
    <path
       style="fill:#ffffff;fill-opacity:1;stroke:#000000;stroke-width:0.26499999;stroke-linecap:round;stroke-linejoin:round;stroke-miterlimit:4;stroke-dasharray:none;stroke-dashoffset:0;stroke-opacity:1"
       id="path1344"
       sodipodi:type="arc"
       sodipodi:cx="4.5035825"
       sodipodi:cy="-293.30917"
       sodipodi:rx="0.83521724"
       sodipodi:ry="0.83521724"
       sodipodi:start="0"
       sodipodi:end="3.1415927"
       d="m 5.3387997,-293.30917 a 0.83521724,0.83521724 0 0 1 -0.4176086,0.72332 0.83521724,0.83521724 0 0 1 -0.8352173,0 0.83521724,0.83521724 0 0 1 -0.4176086,-0.72332 l 0.8352173,0 z"
       transform="scale(1,-1)" />
    <circle
       style="fill:#ffffff;fill-opacity:1;stroke:#000000;stroke-width:0.26499999;stroke-linecap:round;stroke-linejoin:round;stroke-miterlimit:4;stroke-dasharray:none;stroke-dashoffset:0;stroke-opacity:1"
       id="circle1346"
       cx="4.5035825"
       cy="291.85599"
       r="0.61806077" />
    <path
       transform="scale(1,-1)"
       d="m 5.3387997,-293.30917 a 0.83521724,0.83521724 0 0 1 -0.4176086,0.72332 0.83521724,0.83521724 0 0 1 -0.8352173,0 0.83521724,0.83521724 0 0 1 -0.4176086,-0.72332 l 0.8352173,0 z"
       sodipodi:end="3.1415927"
       sodipodi:start="0"
       sodipodi:ry="0.83521724"
       sodipodi:rx="0.83521724"
       sodipodi:cy="-293.30917"
       sodipodi:cx="4.5035825"
       sodipodi:type="arc"
       id="path1348"
       style="fill:#ffffff;fill-opacity:1;stroke:#000000;stroke-width:0.26499999;stroke-linecap:round;stroke-linejoin:round;stroke-miterlimit:4;stroke-dasharray:none;stroke-dashoffset:0;stroke-opacity:1" />
    <circle
       r="0.61806077"
       cy="291.85599"
       cx="4.5035825"
       id="circle1350"
       style="fill:#ffffff;fill-opacity:1;stroke:#000000;stroke-width:0.26499999;stroke-linecap:round;stroke-linejoin:round;stroke-miterlimit:4;stroke-dasharray:none;stroke-dashoffset:0;stroke-opacity:1" />
    <path
       transform="scale(1,-1)"
       d="m 3.2221332,-293.30917 a 0.83521724,0.83521724 0 0 1 -0.4176087,0.72332 0.83521724,0.83521724 0 0 1 -0.8352172,0 0.83521724,0.83521724 0 0 1 -0.4176086,-0.72332 l 0.8352172,0 z"
       sodipodi:end="3.1415927"
       sodipodi:start="0"
       sodipodi:ry="0.83521724"
       sodipodi:rx="0.83521724"
       sodipodi:cy="-293.30917"
       sodipodi:cx="2.3869159"
       sodipodi:type="arc"
       id="path1352"
       style="fill:#ffffff;fill-opacity:1;stroke:#000000;stroke-width:0.26499999;stroke-linecap:round;stroke-linejoin:round;stroke-miterlimit:4;stroke-dasharray:none;stroke-dashoffset:0;stroke-opacity:1" />
    <circle
       r="0.61806077"
       cy="291.85599"
       cx="2.3869159"
       id="circle1354"
       style="fill:#ffffff;fill-opacity:1;stroke:#000000;stroke-width:0.26499999;stroke-linecap:round;stroke-linejoin:round;stroke-miterlimit:4;stroke-dasharray:none;stroke-dashoffset:0;stroke-opacity:1" />
    <path
       style="fill:#ffffff;fill-opacity:1;stroke:#000000;stroke-width:0.26499999;stroke-linecap:round;stroke-linejoin:round;stroke-miterlimit:4;stroke-dasharray:none;stroke-dashoffset:0;stroke-opacity:1"
       id="path1356"
       sodipodi:type="arc"
       sodipodi:cx="2.3869159"
       sodipodi:cy="-293.30917"
       sodipodi:rx="0.83521724"
       sodipodi:ry="0.83521724"
       sodipodi:start="0"
       sodipodi:end="3.1415927"
       d="m 3.2221332,-293.30917 a 0.83521724,0.83521724 0 0 1 -0.4176087,0.72332 0.83521724,0.83521724 0 0 1 -0.8352172,0 0.83521724,0.83521724 0 0 1 -0.4176086,-0.72332 l 0.8352172,0 z"
       transform="scale(1,-1)" />
    <circle
       r="0.61806077"
       cy="293.46619"
       cx="1.6125563"
       id="circle1330"
       style="fill:#ffffff;fill-opacity:1;stroke:#000000;stroke-width:0.26499999;stroke-linecap:round;stroke-linejoin:round;stroke-miterlimit:4;stroke-dasharray:none;stroke-dashoffset:0;stroke-opacity:1" />
    <path
       style="fill:#ffffff;fill-opacity:1;stroke:#000000;stroke-width:0.26499999;stroke-linecap:round;stroke-linejoin:round;stroke-miterlimit:4;stroke-dasharray:none;stroke-dashoffset:0;stroke-opacity:1"
       id="path1332"
       sodipodi:type="arc"
       sodipodi:cx="1.6125563"
       sodipodi:cy="-294.91937"
       sodipodi:rx="0.83521724"
       sodipodi:ry="0.83521724"
       sodipodi:start="0"
       sodipodi:end="3.1415927"
       d="m 2.4477736,-294.91937 a 0.83521724,0.83521724 0 0 1 -0.4176087,0.72332 0.83521724,0.83521724 0 0 1 -0.8352172,0 0.83521724,0.83521724 0 0 1 -0.4176086,-0.72332 l 0.8352172,0 z"
       transform="scale(1,-1)" />
    <circle
       style="fill:#ffffff;fill-opacity:1;stroke:#000000;stroke-width:0.26499999;stroke-linecap:round;stroke-linejoin:round;stroke-miterlimit:4;stroke-dasharray:none;stroke-dashoffset:0;stroke-opacity:1"
       id="circle1358"
       cx="2.3869159"
       cy="291.85599"
       r="0.61806077" />
    <circle
       style="fill:#ffffff;fill-opacity:1;stroke:#000000;stroke-width:0.26499999;stroke-linecap:round;stroke-linejoin:round;stroke-miterlimit:4;stroke-dasharray:none;stroke-dashoffset:0;stroke-opacity:1"
       id="circle1334"
       cx="1.6125563"
       cy="293.46619"
       r="0.61806077" />
    <path
       transform="scale(1,-1)"
       d="m 6.1018274,-294.82452 a 0.83521724,0.83521724 0 0 1 -0.4176086,0.72332 0.83521724,0.83521724 0 0 1 -0.8352173,0 0.83521724,0.83521724 0 0 1 -0.4176086,-0.72332 l 0.8352172,0 z"
       sodipodi:end="3.1415927"
       sodipodi:start="0"
       sodipodi:ry="0.83521724"
       sodipodi:rx="0.83521724"
       sodipodi:cy="-294.82452"
       sodipodi:cx="5.2666101"
       sodipodi:type="arc"
       id="path1336"
       style="fill:#ffffff;fill-opacity:1;stroke:#000000;stroke-width:0.26499999;stroke-linecap:round;stroke-linejoin:round;stroke-miterlimit:4;stroke-dasharray:none;stroke-dashoffset:0;stroke-opacity:1" />
    <circle
       r="0.61806077"
       cy="293.37134"
       cx="5.2666101"
       id="circle1338"
       style="fill:#ffffff;fill-opacity:1;stroke:#000000;stroke-width:0.26499999;stroke-linecap:round;stroke-linejoin:round;stroke-miterlimit:4;stroke-dasharray:none;stroke-dashoffset:0;stroke-opacity:1" />
    <path
       style="fill:#ffffff;fill-opacity:1;stroke:#000000;stroke-width:0.26499999;stroke-linecap:round;stroke-linejoin:round;stroke-miterlimit:4;stroke-dasharray:none;stroke-dashoffset:0;stroke-opacity:1"
       id="path1340"
       sodipodi:type="arc"
       sodipodi:cx="5.2666101"
       sodipodi:cy="-294.82452"
       sodipodi:rx="0.83521724"
       sodipodi:ry="0.83521724"
       sodipodi:start="0"
       sodipodi:end="3.1415927"
       d="m 6.1018274,-294.82452 a 0.83521724,0.83521724 0 0 1 -0.4176086,0.72332 0.83521724,0.83521724 0 0 1 -0.8352173,0 0.83521724,0.83521724 0 0 1 -0.4176086,-0.72332 l 0.8352172,0 z"
       transform="scale(1,-1)" />
    <circle
       style="fill:#ffffff;fill-opacity:1;stroke:#000000;stroke-width:0.26499999;stroke-linecap:round;stroke-linejoin:round;stroke-miterlimit:4;stroke-dasharray:none;stroke-dashoffset:0;stroke-opacity:1"
       id="circle1342"
       cx="5.2666101"
       cy="293.37134"
       r="0.61806077" />
  </g>
</svg>
