<?xml version="1.0" encoding="UTF-8" standalone="no"?>
<!-- Created with Inkscape (http://www.inkscape.org/) -->

<svg
   xmlns:dc="http://purl.org/dc/elements/1.1/"
   xmlns:cc="http://creativecommons.org/ns#"
   xmlns:rdf="http://www.w3.org/1999/02/22-rdf-syntax-ns#"
   xmlns:svg="http://www.w3.org/2000/svg"
   xmlns="http://www.w3.org/2000/svg"
   xmlns:sodipodi="http://sodipodi.sourceforge.net/DTD/sodipodi-0.dtd"
   xmlns:inkscape="http://www.inkscape.org/namespaces/inkscape"
   width="26"
   height="26"
   viewBox="0 0 6.8791665 6.8791669"
   version="1.1"
   id="svg8"
   inkscape:version="0.92.1 r15371"
   sodipodi:docname="peur.svg"
   inkscape:export-filename="/home/yann/Documents/Application/BanquePopulaireReact/assets/icons/peur.png"
   inkscape:export-xdpi="738.47998"
   inkscape:export-ydpi="738.47998">
  <defs
     id="defs2" />
  <sodipodi:namedview
     id="base"
     pagecolor="#ffffff"
     bordercolor="#666666"
     borderopacity="1.0"
     inkscape:pageopacity="0.0"
     inkscape:pageshadow="2"
     inkscape:zoom="22.4"
     inkscape:cx="21.686256"
     inkscape:cy="8.3549555"
     inkscape:document-units="mm"
     inkscape:current-layer="layer1"
     showgrid="false"
     units="px"
     inkscape:window-width="1920"
     inkscape:window-height="1021"
     inkscape:window-x="0"
     inkscape:window-y="0"
     inkscape:window-maximized="1" />
  <metadata
     id="metadata5">
    <rdf:RDF>
      <cc:Work
         rdf:about="">
        <dc:format>image/svg+xml</dc:format>
        <dc:type
           rdf:resource="http://purl.org/dc/dcmitype/StillImage" />
        <dc:title />
      </cc:Work>
    </rdf:RDF>
  </metadata>
  <g
     inkscape:label="Calque 1"
     inkscape:groupmode="layer"
     id="layer1"
     transform="translate(0,-290.12082)">
    <path
       sodipodi:nodetypes="csssssssc"
       inkscape:connector-curvature="0"
       id="path62"
       d="m 0.60245997,295.93186 c 0,0 0.45152793,-0.42596 0.70928083,-0.42596 0.257753,0 0.4515279,0.42596 0.7092808,0.42596 0.257753,0 0.4515279,-0.42596 0.7092809,-0.42596 0.2577529,0 0.4515279,0.42596 0.7092808,0.42596 0.257753,0 0.4515279,-0.42596 0.7092809,-0.42596 0.2577529,0 0.4515279,0.42596 0.7092808,0.42596 0.2577529,0 0.4515279,-0.42596 0.7092809,-0.42596 0.2577529,0 0.7092808,0.42596 0.7092808,0.42596"
       style="fill:none;stroke:#000000;stroke-width:0.29732108px;stroke-linecap:butt;stroke-linejoin:miter;stroke-opacity:1" />
    <path
       style="fill:none;stroke:#000000;stroke-width:0.29732108px;stroke-linecap:butt;stroke-linejoin:miter;stroke-opacity:1"
       d="m 0.60245997,295.2273 c 0,0 0.45152793,-0.42596 0.70928083,-0.42596 0.257753,0 0.4515279,0.42596 0.7092808,0.42596 0.257753,0 0.4515279,-0.42596 0.7092809,-0.42596 0.2577529,0 0.4515279,0.42596 0.7092808,0.42596 0.257753,0 0.4515279,-0.42596 0.7092809,-0.42596 0.2577529,0 0.4515279,0.42596 0.7092808,0.42596 0.2577529,0 0.4515279,-0.42596 0.7092809,-0.42596 0.2577529,0 0.7092808,0.42596 0.7092808,0.42596"
       id="path60"
       inkscape:connector-curvature="0"
       sodipodi:nodetypes="csssssssc"
       clip-path="none" />
    <path
       style="fill:#ffffff;stroke:#000000;stroke-width:0.26458332px;stroke-linecap:butt;stroke-linejoin:miter;stroke-opacity:1;fill-opacity:0"
       d="m 4.5170135,294.96838 0.6431173,-0.64312 h -3.098656 l 0.3315384,0.57425 c 0,0 0.2945716,-0.14648 0.4108895,-0.0704 0.1922959,0.12569 0.3659209,0.47266 0.5949001,0.40263 0.3511142,-0.10738 0.5116886,-0.40646 0.7791872,-0.41835 0.149006,-0.007 0.3390235,0.15504 0.3390235,0.15504 z"
       id="path900"
       inkscape:connector-curvature="0"
       sodipodi:nodetypes="ccccssscc" />
    <path
       style="fill:#fdfdfd;fill-opacity:0;stroke:#000000;stroke-width:0.29917508;stroke-linecap:round;stroke-linejoin:round;stroke-miterlimit:4;stroke-dasharray:none;stroke-opacity:1"
       inkscape:transform-center-y="-0.36877404"
       d="M 5.1516478,293.88757 H 3.8741771 2.5967064 c 0,0 0.2167169,-0.83425 0.2343926,-1.27787 0.015952,-0.40036 -0.087268,-1.15501 -0.087268,-1.15501 0,0 1.100759,0.695 1.4039811,0.98343 0.4225827,0.40195 1.0038356,1.44945 1.0038357,1.44945 z"
       id="path904"
       inkscape:connector-curvature="0"
       sodipodi:nodetypes="cccscsc" />
    <path
       style="fill:none;stroke:#000000;stroke-width:0.08732942;stroke-linecap:round;stroke-linejoin:bevel;stroke-miterlimit:4;stroke-dasharray:none;stroke-opacity:1"
       d="m 2.6942808,291.17215 c 0,0 0.1073383,-0.0882 0.1632523,-0.0882 0.055914,0 0.1632523,0.0882 0.1632523,0.0882 0,0 0.1069598,0.0989 0.1632522,0.0989 0.056293,0 0.1632522,-0.0989 0.1632522,-0.0989"
       id="path909"
       inkscape:connector-curvature="0"
       sodipodi:nodetypes="cacsc" />
    <rect
       style="fill:#ffffff;fill-opacity:0;stroke:none;stroke-width:0.2610814;stroke-linecap:round;stroke-linejoin:round;stroke-miterlimit:4;stroke-dasharray:none;stroke-dashoffset:0;stroke-opacity:1"
       id="rect1400"
       width="6.8791666"
       height="6.8791666"
       x="0"
       y="290.12082"
       rx="0"
       ry="0" />
  </g>
</svg>
