<?xml version="1.0" encoding="UTF-8" standalone="no"?>
<!-- Created with Inkscape (http://www.inkscape.org/) -->

<svg
   xmlns:dc="http://purl.org/dc/elements/1.1/"
   xmlns:cc="http://creativecommons.org/ns#"
   xmlns:rdf="http://www.w3.org/1999/02/22-rdf-syntax-ns#"
   xmlns:svg="http://www.w3.org/2000/svg"
   xmlns="http://www.w3.org/2000/svg"
   xmlns:sodipodi="http://sodipodi.sourceforge.net/DTD/sodipodi-0.dtd"
   xmlns:inkscape="http://www.inkscape.org/namespaces/inkscape"
   width="26"
   height="26"
   viewBox="0 0 6.8791665 6.8791669"
   version="1.1"
   id="svg8"
   inkscape:version="0.92.1 r15371"
   sodipodi:docname="repas.svg">
  <defs
     id="defs2" />
  <sodipodi:namedview
     id="base"
     pagecolor="#ffffff"
     bordercolor="#666666"
     borderopacity="1.0"
     inkscape:pageopacity="0.0"
     inkscape:pageshadow="2"
     inkscape:zoom="15.839192"
     inkscape:cx="6.8869219"
     inkscape:cy="17.72734"
     inkscape:document-units="mm"
     inkscape:current-layer="layer1"
     showgrid="false"
     units="px"
     inkscape:window-width="1920"
     inkscape:window-height="1047"
     inkscape:window-x="1920"
     inkscape:window-y="0"
     inkscape:window-maximized="1"
     showguides="false" />
  <metadata
     id="metadata5">
    <rdf:RDF>
      <cc:Work
         rdf:about="">
        <dc:format>image/svg+xml</dc:format>
        <dc:type
           rdf:resource="http://purl.org/dc/dcmitype/StillImage" />
        <dc:title />
      </cc:Work>
    </rdf:RDF>
  </metadata>
  <g
     inkscape:label="Calque 1"
     inkscape:groupmode="layer"
     id="layer1"
     transform="translate(0,-290.12082)">
    <path
       style="fill:#ffffff;fill-opacity:1;stroke:#000000;stroke-width:0.3243691;stroke-linecap:round;stroke-linejoin:round;stroke-miterlimit:4;stroke-dasharray:none;stroke-dashoffset:0;stroke-opacity:1"
       d="m 1.4117971,290.75642 c -0.070797,0 -0.1276408,0.0574 -0.1276408,0.12816 v 1.74821 c 0,0.0206 0.00585,0.0391 0.014469,0.0563 a 1.063228,0.64406644 0 0 0 0.523999,0.48576 1.063228,0.64406644 0 0 0 0.1224732,0.0362 v 3.06131 c 0,0.0708 0.056844,0.12764 0.1276408,0.12764 h 0.5622396 c 0.070797,0 0.1281574,-0.0568 0.1281574,-0.12764 v -3.06131 a 1.063228,0.64406644 0 0 0 0.1224732,-0.0362 1.063228,0.64406644 0 0 0 0.52865,-0.52193 c 0.00113,-0.007 0.00413,-0.013 0.00413,-0.0202 v -1.74821 c 0,-0.0708 -0.056844,-0.12816 -0.1276408,-0.12816 h -0.214974 c -0.070797,0 -0.1276408,0.0574 -0.1276408,0.12816 v 1.73271 H 2.6349783 2.5745168 v -1.73271 c 0,-0.0708 -0.056844,-0.12816 -0.1276408,-0.12816 H 2.2319021 c -0.070797,0 -0.1276408,0.0574 -0.1276408,0.12816 v 1.73271 H 2.0727387 1.7544119 v -1.73271 c 0,-0.0708 -0.056844,-0.12816 -0.1276408,-0.12816 z"
       id="rect1250"
       inkscape:connector-curvature="0" />
    <path
       style="fill:#ffffff;fill-opacity:1;stroke:#000000;stroke-width:0.3243691;stroke-linecap:round;stroke-linejoin:round;stroke-miterlimit:4;stroke-dasharray:none;stroke-dashoffset:0;stroke-opacity:1"
       d="m 4.9945241,290.72076 c -0.03085,0 -0.060119,0.004 -0.086816,0.0109 v -5.2e-4 a 0.67465156,1.3392584 0 0 0 -0.5839436,0.66973 0.67465156,1.3392584 0 0 0 0,1.33893 0.67465156,1.3392584 0 0 0 0.449068,0.64234 v 2.89026 c 3e-7,0.0708 0.057361,0.12764 0.1281578,0.12764 h 0.5622396 c 0.070797,0 0.1276405,-0.0568 0.1276405,-0.12764 v -3.52743 c 0,-0.008 -0.00277,-0.0147 -0.00413,-0.0222 0.00274,-0.008 0.00827,-0.0164 0.00827,-0.0253 v -1.84175 c 0,-0.0746 -0.1001533,-0.13488 -0.2242757,-0.13488 z"
       id="rect1252"
       inkscape:connector-curvature="0" />
    <rect
       style="fill:#ffffff;fill-opacity:0;stroke:none;stroke-width:0.2610814;stroke-linecap:round;stroke-linejoin:round;stroke-miterlimit:4;stroke-dasharray:none;stroke-dashoffset:0;stroke-opacity:1"
       id="rect1400"
       width="6.8791666"
       height="6.8791666"
       x="0"
       y="290.12082"
       rx="0"
       ry="0" />
    <rect
       style="fill:#ffffff;fill-opacity:0;stroke:none;stroke-width:0.2610814;stroke-linecap:round;stroke-linejoin:round;stroke-miterlimit:4;stroke-dasharray:none;stroke-dashoffset:0;stroke-opacity:1"
       id="rect1400-3"
       width="6.8791666"
       height="6.8791666"
       x="0"
       y="290.12082"
       rx="0"
       ry="0" />
  </g>
</svg>
